<?xml version="1.0" encoding="UTF-8"?>
<svg width="45px" height="47px" viewBox="0 0 45 47" version="1.1" xmlns="http://www.w3.org/2000/svg" xmlns:xlink="http://www.w3.org/1999/xlink">
    <!-- Generator: Sketch 52.6 (67491) - http://www.bohemiancoding.com/sketch -->
    <title>Icon</title>
    <desc>Created with Sketch.</desc>
    <g id="Design-1" stroke="none" stroke-width="1" fill="none" fill-rule="evenodd">
        <g id="6-My-Feed" transform="translate(-165.000000, -391.000000)">
            <g id="Categories" transform="translate(15.000000, 319.000000)">
                <g id="2" transform="translate(118.000000, 52.000000)">
                    <g id="Icon" transform="translate(32.000000, 20.000000)">
                        <path d="M35.6471045,42.8120377 L35.6471045,0 L0,0 L0,40.7891728 C0,44.2185609 2.73610571,47 6.10959969,47 L35.6471045,47 L40,47 L40,42.8120377 L35.6471045,42.8120377 Z" id="Path" fill="#286EF1"></path>
                        <path d="M40.4919786,47 C38.0053476,47 36,45.0184382 36,42.5965293 L36,18 L45,18 L45,42.5965293 C44.9839572,45.0341649 42.9786096,47 40.4919786,47 Z" id="Path" fill="#E6E9EE"></path>
                        <rect id="Rectangle" fill="#FFC032" x="3" y="3" width="30" height="12"></rect>
                        <path d="M11,11.9840426 L9.73156342,11.9840426 L7.44542773,8.21808511 C7.31268437,7.99468085 7.22418879,7.83510638 7.16519174,7.72340426 L7.15044248,7.72340426 C7.16519174,7.93085106 7.179941,8.26595745 7.179941,8.69680851 L7.179941,12 L6,12 L6,6 L7.34218289,6 L9.53982301,9.65425532 C9.64306785,9.81382979 9.73156342,9.9893617 9.820059,10.1489362 L9.83480826,10.1489362 C9.820059,10.0053191 9.80530973,9.73404255 9.80530973,9.31914894 L9.80530973,6 L10.9852507,6 L10.9852507,11.9840426 L11,11.9840426 Z" id="Path" fill="#FFFFFF"></path>
                        <polygon id="Path" fill="#FFFFFF" points="16 12 13 12 13 6 15.880531 6 15.880531 7.10106383 14.1283186 7.10106383 14.1283186 8.44148936 15.7610619 8.44148936 15.7610619 9.54255319 14.1283186 9.54255319 14.1283186 10.9148936 16 10.9148936"></polygon>
                        <path d="M25,6 L23.5056604,12 L22.0867925,12 L21.1509434,8.15425532 C21.1056604,7.94680851 21.0754717,7.72340426 21.0603774,7.48404255 L21.045283,7.48404255 C21.0150943,7.75531915 20.9849057,7.9787234 20.9396226,8.15425532 L19.9735849,12 L18.4943396,12 L17,6 L18.4037736,6 L19.2037736,10.0053191 C19.2339623,10.1808511 19.2641509,10.4042553 19.2792453,10.6914894 L19.309434,10.6914894 C19.3245283,10.4840426 19.354717,10.2446809 19.4301887,9.9893617 L20.4566038,6 L21.8301887,6 L22.7660377,10.037234 C22.7962264,10.1808511 22.8264151,10.4042553 22.8566038,10.6755319 L22.8716981,10.6755319 C22.8867925,10.4521277 22.9169811,10.2287234 22.9622642,10.0053191 L23.7471698,6 L25,6 Z" id="Path" fill="#FFFFFF"></path>
                        <path d="M26.0153846,11.6615385 L26.0153846,10.3692308 C26.2461538,10.5692308 26.5076923,10.7076923 26.7846154,10.8153846 C27.0615385,10.9076923 27.3384615,10.9692308 27.6153846,10.9692308 C27.7846154,10.9692308 27.9230769,10.9538462 28.0461538,10.9230769 C28.1692308,10.8923077 28.2769231,10.8461538 28.3538462,10.8 C28.4307692,10.7538462 28.4923077,10.6923077 28.5384615,10.6153846 C28.5846154,10.5384615 28.6,10.4615385 28.6,10.3846154 C28.6,10.2769231 28.5692308,10.1692308 28.5076923,10.0769231 C28.4461538,9.98461538 28.3538462,9.90769231 28.2461538,9.83076923 C28.1384615,9.75384615 28,9.67692308 27.8461538,9.61538462 C27.6923077,9.55384615 27.5230769,9.47692308 27.3538462,9.4 C26.9076923,9.21538462 26.5692308,8.98461538 26.3384615,8.70769231 C26.1230769,8.43076923 26,8.10769231 26,7.72307692 C26,7.41538462 26.0615385,7.16923077 26.1846154,6.93846154 C26.3076923,6.72307692 26.4769231,6.53846154 26.6769231,6.4 C26.8923077,6.26153846 27.1230769,6.15384615 27.4,6.09230769 C27.6769231,6.03076923 27.9692308,6 28.2769231,6 C28.5846154,6 28.8461538,6.01538462 29.0769231,6.06153846 C29.3076923,6.09230769 29.5230769,6.15384615 29.7230769,6.23076923 L29.7230769,7.43076923 C29.6307692,7.36923077 29.5230769,7.30769231 29.4,7.24615385 C29.2923077,7.2 29.1692308,7.15384615 29.0461538,7.12307692 C28.9230769,7.09230769 28.8,7.06153846 28.6923077,7.04615385 C28.5692308,7.03076923 28.4615385,7.01538462 28.3538462,7.01538462 C28.2,7.01538462 28.0769231,7.03076923 27.9538462,7.06153846 C27.8307692,7.09230769 27.7230769,7.12307692 27.6461538,7.18461538 C27.5692308,7.23076923 27.4923077,7.29230769 27.4461538,7.36923077 C27.4,7.44615385 27.3846154,7.52307692 27.3846154,7.61538462 C27.3846154,7.70769231 27.4153846,7.8 27.4615385,7.87692308 C27.5076923,7.95384615 27.5846154,8.03076923 27.6769231,8.09230769 C27.7692308,8.15384615 27.8923077,8.23076923 28.0153846,8.29230769 C28.1538462,8.35384615 28.3076923,8.43076923 28.4769231,8.49230769 C28.7076923,8.58461538 28.9230769,8.69230769 29.1076923,8.8 C29.2923077,8.90769231 29.4461538,9.03076923 29.5846154,9.16923077 C29.7230769,9.30769231 29.8153846,9.46153846 29.8923077,9.64615385 C29.9692308,9.81538462 30,10.0307692 30,10.2615385 C30,10.5846154 29.9384615,10.8615385 29.8153846,11.0769231 C29.6923077,11.2923077 29.5230769,11.4769231 29.3230769,11.6153846 C29.1076923,11.7538462 28.8615385,11.8461538 28.5846154,11.9076923 C28.3076923,11.9692308 28.0153846,12 27.7076923,12 C27.3846154,12 27.0923077,11.9692308 26.8,11.9230769 C26.4769231,11.8461538 26.2307692,11.7692308 26.0153846,11.6615385 Z" id="Path" fill="#FFFFFF"></path>
                        <rect id="Rectangle" fill="#FFC032" x="3" y="18" width="6" height="6"></rect>
                        <rect id="Rectangle" fill="#FFC032" x="15" y="18" width="6" height="6"></rect>
                        <rect id="Rectangle" fill="#FFC032" x="27" y="18" width="6" height="6"></rect>
                        <rect id="Rectangle" fill="#E6E9EE" x="3" y="27" width="30" height="2"></rect>
                        <rect id="Rectangle" fill="#E6E9EE" x="3" y="32" width="30" height="2"></rect>
                        <rect id="Rectangle" fill="#E6E9EE" x="3" y="37" width="16" height="2"></rect>
                    </g>
                </g>
            </g>
        </g>
    </g>
</svg>