<?xml version="1.0" encoding="UTF-8"?>
<svg width="36px" height="20px" viewBox="0 0 36 20" version="1.1" xmlns="http://www.w3.org/2000/svg" xmlns:xlink="http://www.w3.org/1999/xlink">
    <!-- Generator: Sketch 52.6 (67491) - http://www.bohemiancoding.com/sketch -->
    <title>Ads</title>
    <desc>Created with Sketch.</desc>
    <g id="Design-1" stroke="none" stroke-width="1" fill="none" fill-rule="evenodd">
        <g id="5-Feed---ADS" transform="translate(-16.000000, -357.000000)">
            <g id="Ads" transform="translate(16.000000, 357.000000)">
                <rect id="Rectangle" fill="#F4B66C" x="0" y="0" width="36" height="20" rx="2"></rect>
                <path d="M19.0692771,16 L15.4909639,16 C14.8171024,16 14.2710843,15.4803095 14.2710843,14.8392857 L14.2710843,4.16071429 C14.2710843,3.51969048 14.8171024,3 15.4909639,3 L19.0692771,3 C21.0871205,3 22.7289157,4.5620119 22.7289157,6.48214286 L22.7289157,12.5178571 C22.7289157,14.4379881 21.0871205,16 19.0692771,16 Z M16.7108434,13.6785714 L19.0692771,13.6785714 C19.742,13.6785714 20.2891566,13.1579524 20.2891566,12.5178571 L20.2891566,6.48214286 C20.2891566,5.84204762 19.742,5.32142857 19.0692771,5.32142857 L16.7108434,5.32142857 L16.7108434,13.6785714 Z M29.1536145,16 L24.7620482,16 C24.0881867,16 23.5421687,15.4803095 23.5421687,14.8392857 C23.5421687,14.1982619 24.0881867,13.6785714 24.7620482,13.6785714 L29.1536145,13.6785714 C29.374006,13.6785714 29.560241,13.501369 29.560241,13.2916667 L29.560241,11.047619 C29.560241,10.8379167 29.374006,10.6607143 29.1536145,10.6607143 L26.3885542,10.6607143 C24.8191386,10.6607143 23.5421687,9.44567857 23.5421687,7.95238095 L23.5421687,5.70833333 C23.5421687,4.21503571 24.8191386,3 26.3885542,3 L30.7801205,3 C31.4538193,3 32,3.51969048 32,4.16071429 C32,4.8017381 31.4538193,5.32142857 30.7801205,5.32142857 L26.3885542,5.32142857 C26.1681627,5.32142857 25.9819277,5.49863095 25.9819277,5.70833333 L25.9819277,7.95238095 C25.9819277,8.16208333 26.1681627,8.33928571 26.3885542,8.33928571 L29.1536145,8.33928571 C30.7230301,8.33928571 32,9.55432143 32,11.047619 L32,13.2916667 C32,14.785119 30.7230301,16 29.1536145,16 Z M9.79819277,3 C11.8160361,3 13.4578313,4.5620119 13.4578313,6.48214286 L13.4578313,14.8392857 C13.4578313,15.4803095 12.9116506,16 12.2379518,16 C11.5640904,16 11.0180723,15.4803095 11.0180723,14.8392857 L11.0180723,10.6865595 L7.43975904,10.6865595 L7.43975904,14.8392857 C7.43975904,15.4803095 6.89357831,16 6.21987952,16 C5.54601807,16 5,15.4803095 5,14.8392857 L5,6.48214286 C5,4.5620119 6.64179518,3 8.65963855,3 L9.79819277,3 Z M7.43975904,8.36513095 L11.0180723,8.36513095 L11.0180723,6.48214286 C11.0180723,5.84204762 10.4709157,5.32142857 9.79819277,5.32142857 L8.65963855,5.32142857 C7.98691566,5.32142857 7.43975904,5.84204762 7.43975904,6.48214286 L7.43975904,8.36513095 Z" id="Combined-Shape" stroke="#F4B66C" fill="#FFFFFF" fill-rule="nonzero"></path>
            </g>
        </g>
    </g>
</svg>