<?xml version="1.0" encoding="UTF-8"?>
<svg width="115px" height="77px" viewBox="0 0 115 77" version="1.1" xmlns="http://www.w3.org/2000/svg" xmlns:xlink="http://www.w3.org/1999/xlink">
    <!-- Generator: Sketch 52.6 (67491) - http://www.bohemiancoding.com/sketch -->
    <title>Logo</title>
    <desc>Created with Sketch.</desc>
    <g id="Design-1" stroke="none" stroke-width="1" fill="none" fill-rule="evenodd">
        <g id="1-Splash" transform="translate(-130.000000, -368.000000)">
            <g id="Logo" transform="translate(130.000000, 368.000000)">
                <path d="M4.62394187,64.4478544 C4.29930869,64.7199415 4.1369921,65.0813073 4.1369921,65.5319516 C4.1369921,65.9804703 4.33468538,66.3397104 4.73215293,66.6032948 C5.1275395,66.8690049 6.04525254,67.18148 7.48321106,67.5428458 C8.9190886,67.9042115 10.0344949,68.4462601 10.82943,69.1689916 C11.6222841,69.8917231 12.0197517,70.9460608 12.0197517,72.3320048 C12.0197517,73.7179487 11.5099111,74.8424339 10.4943919,75.7054603 C9.47679176,76.5684868 8.13663939,77 6.4760158,77 C4.0787246,77 1.92074633,76.0923343 0,74.2791285 L2.01439052,71.7559453 C3.64588036,73.216288 5.15459227,73.9453966 6.54052624,73.9453966 C7.16065886,73.9453966 7.64760863,73.809353 8.00137556,73.5372658 C8.35514249,73.2651787 8.53202596,72.8953102 8.53202596,72.4297861 C8.53202596,71.964262 8.34473758,71.5965192 7.96807985,71.3223064 C7.5935031,71.0502192 6.84851157,70.7738807 5.73726721,70.4932908 C3.97467551,70.066029 2.68654769,69.5091006 1.87080277,68.8225056 C1.05505784,68.1359107 0.647185384,67.0603162 0.647185384,65.5914707 C0.647185384,64.1226252 1.16326891,62.991763 2.19543595,62.1946327 C3.22760299,61.3975023 4.51573081,61 6.0619004,61 C7.07117664,61 8.08253386,61.1764315 9.09389108,61.5314202 C10.1031673,61.8864089 10.9855037,62.3880696 11.7367381,63.0364023 L10.028252,65.5638369 C8.71515237,64.5456357 7.35627116,64.037598 5.95577032,64.037598 C5.39390519,64.037598 4.94857506,64.1736416 4.62394187,64.4478544 Z M25.5149196,76.8256942 L24.1081758,73.4841238 L17.7611809,73.4841238 L16.3544371,76.8256942 L12.7564193,76.8256942 L19.2990265,61.3613657 L22.5682492,61.3613657 L29.1087754,76.8256942 L25.5149196,76.8256942 Z M20.9450832,65.9613392 L19.0389038,70.4529029 L22.8283719,70.4529029 L20.9450832,65.9613392 Z M30.8630432,61.3613657 L34.2425578,61.3613657 L34.2425578,67.7107745 L39.9610962,61.3613657 L44.1417889,61.3613657 L38.1215082,68.1975555 C38.6417537,68.9351667 39.6010863,70.3104823 41.0015872,72.3235021 C42.402088,74.3365219 43.448822,75.8372526 44.1417889,76.8256942 L40.2004091,76.8256942 L35.7595937,70.718613 L34.2425578,72.4446659 L34.2425578,76.8256942 L30.8630432,76.8256942 L30.8630432,61.3613657 Z M50.24739,72.8315398 C50.8113361,73.5457686 51.5688135,73.902883 52.5219032,73.902883 C53.4749929,73.902883 54.2303894,73.5457686 54.7860116,72.8315398 C55.3416337,72.117311 55.6204853,71.1394978 55.6204853,69.9002259 L55.6204853,61.3613657 L59,61.3613657 L59,70.0107613 C59,72.2533546 58.3923533,73.9751561 57.1791408,75.1761658 C55.9659283,76.3771755 54.4135158,76.9787432 52.5219032,76.9787432 C50.6302906,76.9787432 49.0757971,76.3750498 47.8542607,75.1634117 C46.6348053,73.9538993 46.0250776,72.2363491 46.0250776,70.0086356 L46.0250776,61.3592401 L49.4045923,61.3592401 L49.4045923,69.8981002 C49.4045923,71.1394978 49.6855248,72.117311 50.24739,72.8315398 Z" id="Saku" fill="#07133D"></path>
                <path d="M67.6634401,64.8969072 L67.6634401,77 L64.2861194,77 L64.2861194,64.8969072 L60,64.8969072 L60,62 L71.9474799,62 L71.9474799,64.8969072 L67.6634401,64.8969072 Z M84.090445,77 L82.6846145,73.7587629 L76.3417401,73.7587629 L74.9359096,77 L71.3423073,77 L77.880667,62 L81.1477672,62 L87.6840473,77 L84.090445,77 Z M79.5235755,66.4618557 L77.6186335,70.8185567 L81.4056415,70.8185567 L79.5235755,66.4618557 Z M89.4371762,77 L89.4371762,62 L92.8144969,62 L92.8144969,74.0164948 L99.2655122,74.0164948 L99.2655122,77 L89.4371762,77 Z M101.729875,62 L105.107196,62 L105.107196,68.1587629 L110.822021,62 L115,62 L108.983628,68.6309278 C109.503535,69.3463918 110.462245,70.6804124 111.861837,72.6329897 C113.261429,74.585567 114.307483,76.0412371 115,77 L111.061179,77 L106.623246,71.0762887 L105.107196,72.7505155 L105.107196,77 L101.729875,77 L101.729875,62 Z" id="Talk" fill="#286EF1"></path>
                <path d="M81,0 L81,41.4837758 L45.7502276,41.4837758 L35,49 L35,0 L81,0 Z M77.7139865,38.5185841 L77.7118922,38.5185841 L77.7118922,2.96312684 L38.2839191,2.96312684 L38.2839191,38.5185841 L77.7139865,38.5185841 Z M44.4349845,19.0238938 L55.1140047,19.0238938 L55.1140047,28.9353982 L44.4349845,28.9353982 L44.4349845,19.0238938 Z M58.5089237,26.0775811 L71.5650155,26.0775811 L71.5650155,28.9353982 L58.5089237,28.9353982 L58.5089237,26.0775811 Z M58.5089237,19.0238938 L71.5650155,19.0238938 L71.5650155,21.8775811 L58.5089237,21.8775811 L58.5089237,19.0238938 Z M44.4349845,11.9681416 L71.5650155,11.9681416 L71.5650155,14.8238938 L44.4349845,14.8238938 L44.4349845,11.9681416 Z" id="Icon" fill="#286EF1"></path>
            </g>
        </g>
    </g>
</svg>