<?xml version="1.0" encoding="utf-8"?>
<!-- Generator: Adobe Illustrator 16.0.0, SVG Export Plug-In . SVG Version: 6.00 Build 0)  -->
<!DOCTYPE svg PUBLIC "-//W3C//DTD SVG 1.1//EN" "http://www.w3.org/Graphics/SVG/1.1/DTD/svg11.dtd">
<svg version="1.1" id="Layer_1" xmlns="http://www.w3.org/2000/svg" xmlns:xlink="http://www.w3.org/1999/xlink" x="0px" y="0px"
	 width="23px" height="13px" viewBox="0 0 23 13" enable-background="new 0 0 23 13" xml:space="preserve">
<title>Group</title>
<desc>Created with Sketch.</desc>
<g id="Group_1_" transform="translate(13.000000, 10.000000)">
	<g>
		<path fill="#0F153D" d="M-12-2h8.275C-3.893-2.471-4-2.971-4-3.5V-4h-8c-0.55,0-1,0.45-1,1S-12.55-2-12-2z"/>
		<path fill="#0F153D" d="M-12.278-7h8.553c0.283-0.796,0.781-1.482,1.428-2h-9.981C-12.675-9-13-8.55-13-8S-12.675-7-12.278-7z"/>
		<path fill="#0F153D" d="M-0.723,1h-11.555C-12.675,1-13,1.45-13,2s0.325,1,0.722,1h11.555C-0.325,3,0,2.55,0,2S-0.325,1-0.723,1z"
			/>
	</g>
	<g id="icon_x2F_search_1_" transform="translate(12.000000, 4.000000)">
		<g id="Search_1_">
			<path id="Shape_2_" d="M-5.666-5.666h-0.527L-6.38-5.847c0.8-0.934,1.214-2.206,0.986-3.56c-0.313-1.854-1.86-3.334-3.727-3.561
				c-2.819-0.347-5.193,2.027-4.847,4.847c0.227,1.866,1.707,3.413,3.561,3.727c1.354,0.228,2.627-0.187,3.56-0.986l0.181,0.187
				v0.527l2.832,2.832c0.273,0.273,0.721,0.273,0.994,0c0.273-0.272,0.273-0.719,0-0.992L-5.666-5.666z M-9.666-5.666
				c-1.66,0-3-1.341-3-3c0-1.661,1.34-3,3-3c1.659,0,3,1.34,3,3C-6.666-7.007-8.007-5.666-9.666-5.666z"/>
		</g>
	</g>
</g>
</svg>
