<?xml version="1.0" encoding="UTF-8"?>
<svg width="23px" height="13px" viewBox="0 0 23 13" version="1.1" xmlns="http://www.w3.org/2000/svg" xmlns:xlink="http://www.w3.org/1999/xlink">
    <!-- Generator: Sketch 52.6 (67491) - http://www.bohemiancoding.com/sketch -->
    <title>Group</title>
    <desc>Created with Sketch.</desc>
    <g id="Design-1" stroke="none" stroke-width="1" fill="none" fill-rule="evenodd">
        <g id="5-Feed---When-Click" transform="translate(-16.000000, -55.000000)">
            <g id="Navbar" transform="translate(0.000000, 40.000000)">
                <g id="Group" transform="translate(13.000000, 10.000000)">
                    <g id="icon/menu">
                        <g id="round-menu-24px">
                            <polygon id="Path" points="0 0 24 0 24 24 0 24"></polygon>
                            <path d="M3.72222222,18 L15.2777778,18 C15.675,18 16,17.55 16,17 C16,16.45 15.675,16 15.2777778,16 L3.72222222,16 C3.325,16 3,16.45 3,17 C3,17.55 3.325,18 3.72222222,18 Z M4,13 L20,13 C20.55,13 21,12.55 21,12 C21,11.45 20.55,11 20,11 L4,11 C3.45,11 3,11.45 3,12 C3,12.55 3.45,13 4,13 Z M3,7 C3,7.55 3.325,8 3.72222222,8 L15.2777778,8 C15.675,8 16,7.55 16,7 C16,6.45 15.675,6 15.2777778,6 L3.72222222,6 C3.325,6 3,6.45 3,7 Z" id="Shape" fill="#FFFFFF"></path>
                        </g>
                    </g>
                    <!-- rect id="Rectangle" fill="#FFFFFF" x="12" y="5" width="10" height="11" rx="4.5"></rect-->
                    <g id="icon/search" transform="translate(12.000000, 4.000000)">
                        <g id="Search">
                            <polygon id="Path" points="0 0 16 0 16 16 0 16"></polygon>
                            <path d="M10.3333333,9.33333333 L9.80666667,9.33333333 L9.62,9.15333333 C10.42,8.22 10.8333333,6.94666667 10.6066667,5.59333333 C10.2933333,3.74 8.74666667,2.26 6.88,2.03333333 C4.06,1.68666667 1.68666667,4.06 2.03333333,6.88 C2.26,8.74666667 3.74,10.2933333 5.59333333,10.6066667 C6.94666667,10.8333333 8.22,10.42 9.15333333,9.62 L9.33333333,9.80666667 L9.33333333,10.3333333 L12.1666667,13.1666667 C12.44,13.44 12.8866667,13.44 13.16,13.1666667 C13.4333333,12.8933333 13.4333333,12.4466667 13.16,12.1733333 L10.3333333,9.33333333 Z M6.33333333,9.33333333 C4.67333333,9.33333333 3.33333333,7.99333333 3.33333333,6.33333333 C3.33333333,4.67333333 4.67333333,3.33333333 6.33333333,3.33333333 C7.99333333,3.33333333 9.33333333,4.67333333 9.33333333,6.33333333 C9.33333333,7.99333333 7.99333333,9.33333333 6.33333333,9.33333333 Z" id="Shape" fill="#FFFFFF" fill-rule="nonzero"></path>
                        </g>
                    </g>
                </g>
            </g>
        </g>
    </g>
</svg>