<?xml version="1.0" encoding="UTF-8"?>
<svg width="183px" height="142px" viewBox="0 0 183 142" version="1.1" xmlns="http://www.w3.org/2000/svg" xmlns:xlink="http://www.w3.org/1999/xlink">
    <!-- Generator: Sketch 52.6 (67491) - http://www.bohemiancoding.com/sketch -->
    <title>Illustration</title>
    <desc>Created with Sketch.</desc>
    <defs>
        <linearGradient x1="49.9704824%" y1="100.003133%" x2="49.9704824%" y2="-0.0043332453%" id="linearGradient-1">
            <stop stop-color="#808080" stop-opacity="0.25" offset="0%"></stop>
            <stop stop-color="#808080" stop-opacity="0.12" offset="54%"></stop>
            <stop stop-color="#808080" stop-opacity="0.1" offset="100%"></stop>
        </linearGradient>
    </defs>
    <g id="Design-1" stroke="none" stroke-width="1" fill="none" fill-rule="evenodd">
        <g id="7-Setting" transform="translate(-191.000000, -137.000000)">
            <g id="Illustration" transform="translate(191.000000, 137.000000)">
                <g id="List">
                    <path d="M169.702253,98.468759 C169.132534,98.9683871 168.548712,99.4545117 167.950789,99.9271329 C167.850947,100.008154 167.747721,100.095926 167.646187,100.168507 C165.518247,101.815156 163.284203,103.320655 160.958472,104.675288 C158.289817,106.248441 155.504397,107.679808 152.681749,109.030154 C148.438927,111.077783 144.093145,112.905988 139.661689,114.507496 L139.462005,114.580077 C137.51255,115.273255 135.541096,115.912981 133.547642,116.499257 L133.512105,116.509384 C132.121088,116.914488 130.720481,117.288646 129.310285,117.631859 L129.11737,117.679122 C127.041561,118.17875 124.944881,118.603546 122.827331,118.953511 L122.339967,119.031156 C120.792136,119.274218 119.233587,119.472269 117.66432,119.625308 C108.844389,120.469274 99.9178473,119.783974 91.1520677,118.599045 C73.4495927,116.203868 55.9823384,111.713967 40.0465571,104.675288 C33.9745842,102.006215 28.0982006,98.9147444 22.4608463,95.4237283 C21.6621112,94.9274761 20.8684528,94.4210963 20.0798711,93.9045888 C19.9563379,93.8218801 19.8311125,93.7357956 19.7075793,93.6564627 C11.9334496,88.4728212 4.91236473,82.1599528 1.64635031,74.1929102 C-1.99703261,65.2991926 0.33486784,54.0271777 9.35955949,48.7625154 C12.4766572,46.9564274 16.0726575,45.9723626 19.7109637,45.1604669 L20.0832555,45.0777582 C20.6992292,44.9427236 21.3152029,44.8127528 21.9294844,44.682782 C24.0769312,44.2287281 26.2362236,43.77805 28.3752092,43.2733581 C32.3502703,42.3399313 36.2559497,41.2258957 39.8959482,39.5902889 C40.1644495,39.4710083 40.4318227,39.3477892 40.6980678,39.2206316 C43.5461,37.8702854 46.6445831,35.9055317 48.9900215,33.5458017 C51.0105506,31.5084669 52.4641809,29.172368 52.7044783,26.6657878 C52.7737822,25.9537029 52.7418785,25.2354226 52.6097131,24.5322408 C52.3592623,23.198774 52.1172726,21.8956899 51.9328189,20.6229886 C51.5943718,18.2328758 51.4860688,15.9474149 51.948049,13.7429747 C52.4184905,11.4963362 53.4829066,9.33409436 55.5169736,7.23768189 C55.8249605,6.92035053 56.1555104,6.60470711 56.5086236,6.29075162 C58.1511155,4.8532542 60.0091277,3.68113786 62.0151577,2.81698602 C62.2644804,2.70445717 62.5149313,2.5992427 62.7665103,2.5013426 C68.3508873,0.24626445 75.0639853,-0.224668787 81.3354099,0.0859108387 C87.1948925,0.385983943 93.0171828,1.19303423 98.736667,2.49796674 C99.1901861,2.5992427 99.6437052,2.70558246 100.090455,2.81361016 C104.957767,3.98902984 109.747024,5.46544867 114.430459,7.23430603 C128.200178,12.3993802 141.086551,19.8414757 153.003273,27.9199219 L153.571864,28.3064585 C153.850519,28.4966322 154.129174,28.6879313 154.407829,28.8803556 C154.978676,29.271956 155.546139,29.665807 156.110218,30.0619085 C156.529892,30.3533582 156.948438,30.6470585 157.365856,30.9430094 L158.264433,31.57936 L158.824563,31.981088 C161.870587,34.1754006 164.867536,36.449046 167.644494,38.8881088 L167.949097,39.1581781 C171.333568,42.1626984 174.398206,45.4136569 176.851948,49.0427123 C187.260888,64.4434107 184.17425,85.7805685 169.702253,98.468759 Z" id="Path" fill="#6C63FF" opacity="0.1"></path>
                    <path d="M168,2 L168,100.213615 C167.900322,100.295289 167.797265,100.383768 167.695897,100.456933 C165.571449,102.11684 163.34107,103.63446 161.019155,105 L40.3191251,105 C34.252492,102.310011 28.3812155,99.1936405 22.74875,95.6739518 C21.9513253,95.173704 21.158969,94.6632471 20.371681,94.142581 C20.2483505,94.0592064 20.1233305,93.9724287 20,93.8924571 L20,2.01020914 L168,2 Z" id="Path" fill="#000000" opacity="0.03"></path>
                    <path d="M167,3 L167,100.4871 C164.865929,102.135984 162.625448,103.643528 160.293015,105 L39.0377951,105 C32.9436835,102.327873 27.0458133,99.2321951 21.3878358,95.7358775 C20.5867992,95.2389514 19.7908539,94.7318839 19,94.2146751 L19,3 L167,3 Z" id="Path" fill="#FEFEFE"></path>
                    <path d="M114.264762,15.5183333 L113.900952,15.1983333 C113.865051,15.1657414 113.815543,15.147329 113.76381,15.147329 C113.712076,15.147329 113.662568,15.1657414 113.626667,15.1983333 L111.340952,17.18 L110.375238,16.3283333 C110.339402,16.2962645 110.290306,16.2781874 110.239048,16.2781874 C110.187789,16.2781874 110.138693,16.2962645 110.102857,16.3283333 L109.735238,16.6466667 C109.69799,16.6780805 109.676947,16.7214 109.676947,16.7666667 C109.676947,16.8119333 109.69799,16.8552528 109.735238,16.8866667 L111.201905,18.18 C111.237806,18.212592 111.287314,18.2310043 111.339048,18.2310043 C111.390781,18.2310043 111.440289,18.212592 111.47619,18.18 L114.262857,15.76 C114.30096,15.7287634 114.322737,15.68521 114.323098,15.6395244 C114.323458,15.5938388 114.302369,15.5500268 114.264762,15.5183333 Z M114.264762,15.5183333 L113.900952,15.1983333 C113.865051,15.1657414 113.815543,15.147329 113.76381,15.147329 C113.712076,15.147329 113.662568,15.1657414 113.626667,15.1983333 L111.340952,17.18 L110.375238,16.3283333 C110.339402,16.2962645 110.290306,16.2781874 110.239048,16.2781874 C110.187789,16.2781874 110.138693,16.2962645 110.102857,16.3283333 L109.735238,16.6466667 C109.69799,16.6780805 109.676947,16.7214 109.676947,16.7666667 C109.676947,16.8119333 109.69799,16.8552528 109.735238,16.8866667 L111.201905,18.18 C111.237806,18.212592 111.287314,18.2310043 111.339048,18.2310043 C111.390781,18.2310043 111.440289,18.212592 111.47619,18.18 L114.262857,15.76 C114.30096,15.7287634 114.322737,15.68521 114.323098,15.6395244 C114.323458,15.5938388 114.302369,15.5500268 114.264762,15.5183333 Z M114.264762,15.5183333 L113.900952,15.1983333 C113.865051,15.1657414 113.815543,15.147329 113.76381,15.147329 C113.712076,15.147329 113.662568,15.1657414 113.626667,15.1983333 L111.340952,17.18 L110.375238,16.3283333 C110.339402,16.2962645 110.290306,16.2781874 110.239048,16.2781874 C110.187789,16.2781874 110.138693,16.2962645 110.102857,16.3283333 L109.735238,16.6466667 C109.69799,16.6780805 109.676947,16.7214 109.676947,16.7666667 C109.676947,16.8119333 109.69799,16.8552528 109.735238,16.8866667 L111.201905,18.18 C111.237806,18.212592 111.287314,18.2310043 111.339048,18.2310043 C111.390781,18.2310043 111.440289,18.212592 111.47619,18.18 L114.262857,15.76 C114.30096,15.7287634 114.322737,15.68521 114.323098,15.6395244 C114.323458,15.5938388 114.302369,15.5500268 114.264762,15.5183333 Z M114.264762,15.5183333 L113.900952,15.1983333 C113.865051,15.1657414 113.815543,15.147329 113.76381,15.147329 C113.712076,15.147329 113.662568,15.1657414 113.626667,15.1983333 L111.340952,17.18 L110.375238,16.3283333 C110.339402,16.2962645 110.290306,16.2781874 110.239048,16.2781874 C110.187789,16.2781874 110.138693,16.2962645 110.102857,16.3283333 L109.735238,16.6466667 C109.69799,16.6780805 109.676947,16.7214 109.676947,16.7666667 C109.676947,16.8119333 109.69799,16.8552528 109.735238,16.8866667 L111.201905,18.18 C111.237806,18.212592 111.287314,18.2310043 111.339048,18.2310043 C111.390781,18.2310043 111.440289,18.212592 111.47619,18.18 L114.262857,15.76 C114.30096,15.7287634 114.322737,15.68521 114.323098,15.6395244 C114.323458,15.5938388 114.302369,15.5500268 114.264762,15.5183333 Z M112,13 C109.790861,13 108,14.5670034 108,16.5 C108,18.4329966 109.790861,20 112,20 C114.209139,20 116,18.4329966 116,16.5 C116,14.5670034 114.209139,13 112,13 Z M112,19.3333333 C110.211649,19.3333333 108.761905,18.0648068 108.761905,16.5 C108.761905,14.9351932 110.211649,13.6666667 112,13.6666667 C113.788351,13.6666667 115.238095,14.9351932 115.238095,16.5 C115.239619,17.2515487 114.898831,17.9726512 114.29113,18.5037644 C113.683428,19.0348775 112.85891,19.3322181 112,19.33 L112,19.3333333 Z M114.264762,15.5216667 L113.900952,15.2016667 C113.865051,15.1690747 113.815543,15.1506623 113.76381,15.1506623 C113.712076,15.1506623 113.662568,15.1690747 113.626667,15.2016667 L111.340952,17.1833333 L110.375238,16.3316667 C110.339402,16.2995979 110.290306,16.2815207 110.239048,16.2815207 C110.187789,16.2815207 110.138693,16.2995979 110.102857,16.3316667 L109.735238,16.65 C109.69799,16.6814139 109.676947,16.7247334 109.676947,16.77 C109.676947,16.8152666 109.69799,16.8585861 109.735238,16.89 L111.201905,18.1833333 C111.237806,18.2159253 111.287314,18.2343377 111.339048,18.2343377 C111.390781,18.2343377 111.440289,18.2159253 111.47619,18.1833333 L114.262857,15.7633333 C114.302192,15.732014 114.32477,15.6877319 114.325132,15.6411983 C114.325494,15.5946648 114.303606,15.550118 114.264762,15.5183333 L114.264762,15.5216667 Z M114.264762,15.5216667 L113.900952,15.2016667 C113.865051,15.1690747 113.815543,15.1506623 113.76381,15.1506623 C113.712076,15.1506623 113.662568,15.1690747 113.626667,15.2016667 L111.340952,17.1833333 L110.375238,16.3316667 C110.339402,16.2995979 110.290306,16.2815207 110.239048,16.2815207 C110.187789,16.2815207 110.138693,16.2995979 110.102857,16.3316667 L109.735238,16.65 C109.69799,16.6814139 109.676947,16.7247334 109.676947,16.77 C109.676947,16.8152666 109.69799,16.8585861 109.735238,16.89 L111.201905,18.1833333 C111.237806,18.2159253 111.287314,18.2343377 111.339048,18.2343377 C111.390781,18.2343377 111.440289,18.2159253 111.47619,18.1833333 L114.262857,15.7633333 C114.302192,15.732014 114.32477,15.6877319 114.325132,15.6411983 C114.325494,15.5946648 114.303606,15.550118 114.264762,15.5183333 L114.264762,15.5216667 Z M114.264762,15.5216667 L113.900952,15.2016667 C113.865051,15.1690747 113.815543,15.1506623 113.76381,15.1506623 C113.712076,15.1506623 113.662568,15.1690747 113.626667,15.2016667 L111.340952,17.1833333 L110.375238,16.3316667 C110.339402,16.2995979 110.290306,16.2815207 110.239048,16.2815207 C110.187789,16.2815207 110.138693,16.2995979 110.102857,16.3316667 L109.735238,16.65 C109.69799,16.6814139 109.676947,16.7247334 109.676947,16.77 C109.676947,16.8152666 109.69799,16.8585861 109.735238,16.89 L111.201905,18.1833333 C111.237806,18.2159253 111.287314,18.2343377 111.339048,18.2343377 C111.390781,18.2343377 111.440289,18.2159253 111.47619,18.1833333 L114.262857,15.7633333 C114.302192,15.732014 114.32477,15.6877319 114.325132,15.6411983 C114.325494,15.5946648 114.303606,15.550118 114.264762,15.5183333 L114.264762,15.5216667 Z M114.264762,15.5216667 L113.900952,15.2016667 C113.865051,15.1690747 113.815543,15.1506623 113.76381,15.1506623 C113.712076,15.1506623 113.662568,15.1690747 113.626667,15.2016667 L111.340952,17.1833333 L110.375238,16.3316667 C110.339402,16.2995979 110.290306,16.2815207 110.239048,16.2815207 C110.187789,16.2815207 110.138693,16.2995979 110.102857,16.3316667 L109.735238,16.65 C109.69799,16.6814139 109.676947,16.7247334 109.676947,16.77 C109.676947,16.8152666 109.69799,16.8585861 109.735238,16.89 L111.201905,18.1833333 C111.237806,18.2159253 111.287314,18.2343377 111.339048,18.2343377 C111.390781,18.2343377 111.440289,18.2159253 111.47619,18.1833333 L114.262857,15.7633333 C114.302192,15.732014 114.32477,15.6877319 114.325132,15.6411983 C114.325494,15.5946648 114.303606,15.550118 114.264762,15.5183333 L114.264762,15.5216667 Z M114.264762,15.5216667 L113.900952,15.2016667 C113.865051,15.1690747 113.815543,15.1506623 113.76381,15.1506623 C113.712076,15.1506623 113.662568,15.1690747 113.626667,15.2016667 L111.340952,17.1833333 L110.375238,16.3316667 C110.339402,16.2995979 110.290306,16.2815207 110.239048,16.2815207 C110.187789,16.2815207 110.138693,16.2995979 110.102857,16.3316667 L109.735238,16.65 C109.69799,16.6814139 109.676947,16.7247334 109.676947,16.77 C109.676947,16.8152666 109.69799,16.8585861 109.735238,16.89 L111.201905,18.1833333 C111.237806,18.2159253 111.287314,18.2343377 111.339048,18.2343377 C111.390781,18.2343377 111.440289,18.2159253 111.47619,18.1833333 L114.262857,15.7633333 C114.302192,15.732014 114.32477,15.6877319 114.325132,15.6411983 C114.325494,15.5946648 114.303606,15.550118 114.264762,15.5183333 L114.264762,15.5216667 Z" id="Shape" fill="#3ACC6C" fill-rule="nonzero" opacity="0.7"></path>
                    <path d="M110.264762,68.52 L109.900952,68.1983333 C109.865051,68.1657414 109.815543,68.147329 109.76381,68.147329 C109.712076,68.147329 109.662568,68.1657414 109.626667,68.1983333 L107.340952,70.18 L106.375238,69.3283333 C106.339337,69.2957414 106.289829,69.277329 106.238095,69.277329 C106.186362,69.277329 106.136854,69.2957414 106.100952,69.3283333 L105.733333,69.6466667 C105.696085,69.6780805 105.675043,69.7214 105.675043,69.7666667 C105.675043,69.8119333 105.696085,69.8552528 105.733333,69.8866667 L107.198095,71.18 C107.233997,71.212592 107.283505,71.2310043 107.335238,71.2310043 C107.386971,71.2310043 107.436479,71.212592 107.472381,71.18 L110.260952,68.76 C110.298704,68.7290411 110.320437,68.6859766 110.321156,68.6407085 C110.321874,68.5954404 110.301516,68.5518643 110.264762,68.52 Z M110.264762,68.52 L109.900952,68.1983333 C109.865051,68.1657414 109.815543,68.147329 109.76381,68.147329 C109.712076,68.147329 109.662568,68.1657414 109.626667,68.1983333 L107.340952,70.18 L106.375238,69.3283333 C106.339337,69.2957414 106.289829,69.277329 106.238095,69.277329 C106.186362,69.277329 106.136854,69.2957414 106.100952,69.3283333 L105.733333,69.6466667 C105.696085,69.6780805 105.675043,69.7214 105.675043,69.7666667 C105.675043,69.8119333 105.696085,69.8552528 105.733333,69.8866667 L107.198095,71.18 C107.233997,71.212592 107.283505,71.2310043 107.335238,71.2310043 C107.386971,71.2310043 107.436479,71.212592 107.472381,71.18 L110.260952,68.76 C110.298704,68.7290411 110.320437,68.6859766 110.321156,68.6407085 C110.321874,68.5954404 110.301516,68.5518643 110.264762,68.52 Z M110.264762,68.52 L109.900952,68.1983333 C109.865051,68.1657414 109.815543,68.147329 109.76381,68.147329 C109.712076,68.147329 109.662568,68.1657414 109.626667,68.1983333 L107.340952,70.18 L106.375238,69.3283333 C106.339337,69.2957414 106.289829,69.277329 106.238095,69.277329 C106.186362,69.277329 106.136854,69.2957414 106.100952,69.3283333 L105.733333,69.6466667 C105.696085,69.6780805 105.675043,69.7214 105.675043,69.7666667 C105.675043,69.8119333 105.696085,69.8552528 105.733333,69.8866667 L107.198095,71.18 C107.233997,71.212592 107.283505,71.2310043 107.335238,71.2310043 C107.386971,71.2310043 107.436479,71.212592 107.472381,71.18 L110.260952,68.76 C110.298704,68.7290411 110.320437,68.6859766 110.321156,68.6407085 C110.321874,68.5954404 110.301516,68.5518643 110.264762,68.52 Z M110.264762,68.52 L109.900952,68.1983333 C109.865051,68.1657414 109.815543,68.147329 109.76381,68.147329 C109.712076,68.147329 109.662568,68.1657414 109.626667,68.1983333 L107.340952,70.18 L106.375238,69.3283333 C106.339337,69.2957414 106.289829,69.277329 106.238095,69.277329 C106.186362,69.277329 106.136854,69.2957414 106.100952,69.3283333 L105.733333,69.6466667 C105.696085,69.6780805 105.675043,69.7214 105.675043,69.7666667 C105.675043,69.8119333 105.696085,69.8552528 105.733333,69.8866667 L107.198095,71.18 C107.233997,71.212592 107.283505,71.2310043 107.335238,71.2310043 C107.386971,71.2310043 107.436479,71.212592 107.472381,71.18 L110.260952,68.76 C110.298704,68.7290411 110.320437,68.6859766 110.321156,68.6407085 C110.321874,68.5954404 110.301516,68.5518643 110.264762,68.52 Z M108,66 C105.790861,66 104,67.5670034 104,69.5 C104,71.4329966 105.790861,73 108,73 C110.209139,73 112,71.4329966 112,69.5 C112,67.5670034 110.209139,66 108,66 Z M108,72.3333333 C106.211649,72.3333333 104.761905,71.0648068 104.761905,69.5 C104.761905,67.9351932 106.211649,66.6666667 108,66.6666667 C109.788351,66.6666667 111.238095,67.9351932 111.238095,69.5 C111.240637,70.2519735 110.900237,70.9737651 110.292369,71.5053365 C109.684501,72.0369079 108.859397,72.3343334 108,72.3316667 L108,72.3333333 Z M110.264762,68.5216667 L109.900952,68.2 C109.865051,68.167408 109.815543,68.1489957 109.76381,68.1489957 C109.712076,68.1489957 109.662568,68.167408 109.626667,68.2 L107.340952,70.1816667 L106.375238,69.33 C106.339337,69.297408 106.289829,69.2789957 106.238095,69.2789957 C106.186362,69.2789957 106.136854,69.297408 106.100952,69.33 L105.733333,69.6483333 C105.696085,69.6797472 105.675043,69.7230667 105.675043,69.7683333 C105.675043,69.8136 105.696085,69.8569195 105.733333,69.8883333 L107.198095,71.1816667 C107.233997,71.2142586 107.283505,71.232671 107.335238,71.232671 C107.386971,71.232671 107.436479,71.2142586 107.472381,71.1816667 L110.260952,68.7616667 C110.299307,68.7306602 110.321431,68.6872356 110.322151,68.641549 C110.322871,68.5958623 110.302124,68.5519203 110.264762,68.52 L110.264762,68.5216667 Z M110.264762,68.5216667 L109.900952,68.2 C109.865051,68.167408 109.815543,68.1489957 109.76381,68.1489957 C109.712076,68.1489957 109.662568,68.167408 109.626667,68.2 L107.340952,70.1816667 L106.375238,69.33 C106.339337,69.297408 106.289829,69.2789957 106.238095,69.2789957 C106.186362,69.2789957 106.136854,69.297408 106.100952,69.33 L105.733333,69.6483333 C105.696085,69.6797472 105.675043,69.7230667 105.675043,69.7683333 C105.675043,69.8136 105.696085,69.8569195 105.733333,69.8883333 L107.198095,71.1816667 C107.233997,71.2142586 107.283505,71.232671 107.335238,71.232671 C107.386971,71.232671 107.436479,71.2142586 107.472381,71.1816667 L110.260952,68.7616667 C110.299307,68.7306602 110.321431,68.6872356 110.322151,68.641549 C110.322871,68.5958623 110.302124,68.5519203 110.264762,68.52 L110.264762,68.5216667 Z M110.264762,68.5216667 L109.900952,68.2 C109.865051,68.167408 109.815543,68.1489957 109.76381,68.1489957 C109.712076,68.1489957 109.662568,68.167408 109.626667,68.2 L107.340952,70.1816667 L106.375238,69.33 C106.339337,69.297408 106.289829,69.2789957 106.238095,69.2789957 C106.186362,69.2789957 106.136854,69.297408 106.100952,69.33 L105.733333,69.6483333 C105.696085,69.6797472 105.675043,69.7230667 105.675043,69.7683333 C105.675043,69.8136 105.696085,69.8569195 105.733333,69.8883333 L107.198095,71.1816667 C107.233997,71.2142586 107.283505,71.232671 107.335238,71.232671 C107.386971,71.232671 107.436479,71.2142586 107.472381,71.1816667 L110.260952,68.7616667 C110.299307,68.7306602 110.321431,68.6872356 110.322151,68.641549 C110.322871,68.5958623 110.302124,68.5519203 110.264762,68.52 L110.264762,68.5216667 Z M110.264762,68.5216667 L109.900952,68.2 C109.865051,68.167408 109.815543,68.1489957 109.76381,68.1489957 C109.712076,68.1489957 109.662568,68.167408 109.626667,68.2 L107.340952,70.1816667 L106.375238,69.33 C106.339337,69.297408 106.289829,69.2789957 106.238095,69.2789957 C106.186362,69.2789957 106.136854,69.297408 106.100952,69.33 L105.733333,69.6483333 C105.696085,69.6797472 105.675043,69.7230667 105.675043,69.7683333 C105.675043,69.8136 105.696085,69.8569195 105.733333,69.8883333 L107.198095,71.1816667 C107.233997,71.2142586 107.283505,71.232671 107.335238,71.232671 C107.386971,71.232671 107.436479,71.2142586 107.472381,71.1816667 L110.260952,68.7616667 C110.299307,68.7306602 110.321431,68.6872356 110.322151,68.641549 C110.322871,68.5958623 110.302124,68.5519203 110.264762,68.52 L110.264762,68.5216667 Z M110.264762,68.5216667 L109.900952,68.2 C109.865051,68.167408 109.815543,68.1489957 109.76381,68.1489957 C109.712076,68.1489957 109.662568,68.167408 109.626667,68.2 L107.340952,70.1816667 L106.375238,69.33 C106.339337,69.297408 106.289829,69.2789957 106.238095,69.2789957 C106.186362,69.2789957 106.136854,69.297408 106.100952,69.33 L105.733333,69.6483333 C105.696085,69.6797472 105.675043,69.7230667 105.675043,69.7683333 C105.675043,69.8136 105.696085,69.8569195 105.733333,69.8883333 L107.198095,71.1816667 C107.233997,71.2142586 107.283505,71.232671 107.335238,71.232671 C107.386971,71.232671 107.436479,71.2142586 107.472381,71.1816667 L110.260952,68.7616667 C110.299307,68.7306602 110.321431,68.6872356 110.322151,68.641549 C110.322871,68.5958623 110.302124,68.5519203 110.264762,68.52 L110.264762,68.5216667 Z" id="Shape" fill="#3ACC6C" fill-rule="nonzero" opacity="0.7"></path>
                    <path d="M104.264787,93.5182965 L103.900983,93.1983012 C103.865082,93.1657097 103.815575,93.1472976 103.763842,93.1472976 C103.71211,93.1472976 103.662602,93.1657097 103.626701,93.1983012 L101.34102,95.1799389 L100.37532,94.3282847 C100.339419,94.2956932 100.289912,94.2772811 100.238179,94.2772811 C100.186447,94.2772811 100.13694,94.2956932 100.101039,94.3282847 L99.7353297,94.64828 C99.6986801,94.6796363 99.6780209,94.7225941 99.6780209,94.7674449 C99.6780209,94.8122957 99.6986801,94.8552536 99.7353297,94.8866099 L101.201975,96.1799243 C101.237876,96.2125158 101.287383,96.2309279 101.339116,96.2309279 C101.390848,96.2309279 101.440356,96.2125158 101.476257,96.1799243 L104.262883,93.7599597 C104.300985,93.7287235 104.322762,93.6851708 104.323122,93.6394859 C104.323482,93.5938009 104.302393,93.5499896 104.264787,93.5182965 Z M104.264787,93.5182965 L103.900983,93.1983012 C103.865082,93.1657097 103.815575,93.1472976 103.763842,93.1472976 C103.71211,93.1472976 103.662602,93.1657097 103.626701,93.1983012 L101.34102,95.1799389 L100.37532,94.3282847 C100.339419,94.2956932 100.289912,94.2772811 100.238179,94.2772811 C100.186447,94.2772811 100.13694,94.2956932 100.101039,94.3282847 L99.7353297,94.64828 C99.6986801,94.6796363 99.6780209,94.7225941 99.6780209,94.7674449 C99.6780209,94.8122957 99.6986801,94.8552536 99.7353297,94.8866099 L101.201975,96.1799243 C101.237876,96.2125158 101.287383,96.2309279 101.339116,96.2309279 C101.390848,96.2309279 101.440356,96.2125158 101.476257,96.1799243 L104.262883,93.7599597 C104.300985,93.7287235 104.322762,93.6851708 104.323122,93.6394859 C104.323482,93.5938009 104.302393,93.5499896 104.264787,93.5182965 Z M104.264787,93.5182965 L103.900983,93.1983012 C103.865082,93.1657097 103.815575,93.1472976 103.763842,93.1472976 C103.71211,93.1472976 103.662602,93.1657097 103.626701,93.1983012 L101.34102,95.1799389 L100.37532,94.3282847 C100.339419,94.2956932 100.289912,94.2772811 100.238179,94.2772811 C100.186447,94.2772811 100.13694,94.2956932 100.101039,94.3282847 L99.7353297,94.64828 C99.6986801,94.6796363 99.6780209,94.7225941 99.6780209,94.7674449 C99.6780209,94.8122957 99.6986801,94.8552536 99.7353297,94.8866099 L101.201975,96.1799243 C101.237876,96.2125158 101.287383,96.2309279 101.339116,96.2309279 C101.390848,96.2309279 101.440356,96.2125158 101.476257,96.1799243 L104.262883,93.7599597 C104.300985,93.7287235 104.322762,93.6851708 104.323122,93.6394859 C104.323482,93.5938009 104.302393,93.5499896 104.264787,93.5182965 Z M104.264787,93.5182965 L103.900983,93.1983012 C103.865082,93.1657097 103.815575,93.1472976 103.763842,93.1472976 C103.71211,93.1472976 103.662602,93.1657097 103.626701,93.1983012 L101.34102,95.1799389 L100.37532,94.3282847 C100.339419,94.2956932 100.289912,94.2772811 100.238179,94.2772811 C100.186447,94.2772811 100.13694,94.2956932 100.101039,94.3282847 L99.7353297,94.64828 C99.6986801,94.6796363 99.6780209,94.7225941 99.6780209,94.7674449 C99.6780209,94.8122957 99.6986801,94.8552536 99.7353297,94.8866099 L101.201975,96.1799243 C101.237876,96.2125158 101.287383,96.2309279 101.339116,96.2309279 C101.390848,96.2309279 101.440356,96.2125158 101.476257,96.1799243 L104.262883,93.7599597 C104.300985,93.7287235 104.322762,93.6851708 104.323122,93.6394859 C104.323482,93.5938009 104.302393,93.5499896 104.264787,93.5182965 Z M102.000058,91 C100.382233,91 98.9237093,91.8527352 98.3045943,93.1605764 C97.6854794,94.4684177 98.0276974,95.9738081 99.1716727,96.9747864 C100.315648,97.9757648 102.036094,98.2752055 103.53077,97.73348 C105.025446,97.1917544 106,95.915546 106,94.4999488 C106,92.5669805 104.209165,91 102.000058,91 Z M102.000058,97.3332408 C100.211734,97.3332408 98.7620105,96.0647328 98.7620105,94.4999488 C98.7620105,92.9351649 100.211734,91.6666569 102.000058,91.6666569 C103.788383,91.6666569 105.238106,92.9351649 105.238106,94.4999488 C105.237055,96.0640819 103.787639,97.3315744 102.000058,97.3315741 L102.000058,97.3332408 Z M104.264787,93.5199632 L103.900983,93.1999678 C103.865082,93.1673763 103.815575,93.1489643 103.763842,93.1489643 C103.71211,93.1489643 103.662602,93.1673763 103.626701,93.1999678 L101.34102,95.1816056 L100.37532,94.3299513 C100.339419,94.2973598 100.289912,94.2789478 100.238179,94.2789478 C100.186447,94.2789478 100.13694,94.2973598 100.101039,94.3299513 L99.7353297,94.6499467 C99.6986801,94.6813029 99.6780209,94.7242608 99.6780209,94.7691116 C99.6780209,94.8139624 99.6986801,94.8569202 99.7353297,94.8882765 L101.201975,96.1815909 C101.237876,96.2141824 101.287383,96.2325945 101.339116,96.2325945 C101.390848,96.2325945 101.440356,96.2141824 101.476257,96.1815909 L104.262883,93.7616263 C104.301597,93.7303459 104.323771,93.6864299 104.324132,93.6403228 C104.324493,93.5942157 104.303008,93.550038 104.264787,93.5182965 L104.264787,93.5199632 Z M104.264787,93.5199632 L103.900983,93.1999678 C103.865082,93.1673763 103.815575,93.1489643 103.763842,93.1489643 C103.71211,93.1489643 103.662602,93.1673763 103.626701,93.1999678 L101.34102,95.1816056 L100.37532,94.3299513 C100.339419,94.2973598 100.289912,94.2789478 100.238179,94.2789478 C100.186447,94.2789478 100.13694,94.2973598 100.101039,94.3299513 L99.7353297,94.6499467 C99.6986801,94.6813029 99.6780209,94.7242608 99.6780209,94.7691116 C99.6780209,94.8139624 99.6986801,94.8569202 99.7353297,94.8882765 L101.201975,96.1815909 C101.237876,96.2141824 101.287383,96.2325945 101.339116,96.2325945 C101.390848,96.2325945 101.440356,96.2141824 101.476257,96.1815909 L104.262883,93.7616263 C104.301597,93.7303459 104.323771,93.6864299 104.324132,93.6403228 C104.324493,93.5942157 104.303008,93.550038 104.264787,93.5182965 L104.264787,93.5199632 Z M104.264787,93.5199632 L103.900983,93.1999678 C103.865082,93.1673763 103.815575,93.1489643 103.763842,93.1489643 C103.71211,93.1489643 103.662602,93.1673763 103.626701,93.1999678 L101.34102,95.1816056 L100.37532,94.3299513 C100.339419,94.2973598 100.289912,94.2789478 100.238179,94.2789478 C100.186447,94.2789478 100.13694,94.2973598 100.101039,94.3299513 L99.7353297,94.6499467 C99.6986801,94.6813029 99.6780209,94.7242608 99.6780209,94.7691116 C99.6780209,94.8139624 99.6986801,94.8569202 99.7353297,94.8882765 L101.201975,96.1815909 C101.237876,96.2141824 101.287383,96.2325945 101.339116,96.2325945 C101.390848,96.2325945 101.440356,96.2141824 101.476257,96.1815909 L104.262883,93.7616263 C104.301597,93.7303459 104.323771,93.6864299 104.324132,93.6403228 C104.324493,93.5942157 104.303008,93.550038 104.264787,93.5182965 L104.264787,93.5199632 Z M104.264787,93.5199632 L103.900983,93.1999678 C103.865082,93.1673763 103.815575,93.1489643 103.763842,93.1489643 C103.71211,93.1489643 103.662602,93.1673763 103.626701,93.1999678 L101.34102,95.1816056 L100.37532,94.3299513 C100.339419,94.2973598 100.289912,94.2789478 100.238179,94.2789478 C100.186447,94.2789478 100.13694,94.2973598 100.101039,94.3299513 L99.7353297,94.6499467 C99.6986801,94.6813029 99.6780209,94.7242608 99.6780209,94.7691116 C99.6780209,94.8139624 99.6986801,94.8569202 99.7353297,94.8882765 L101.201975,96.1815909 C101.237876,96.2141824 101.287383,96.2325945 101.339116,96.2325945 C101.390848,96.2325945 101.440356,96.2141824 101.476257,96.1815909 L104.262883,93.7616263 C104.301597,93.7303459 104.323771,93.6864299 104.324132,93.6403228 C104.324493,93.5942157 104.303008,93.550038 104.264787,93.5182965 L104.264787,93.5199632 Z M104.264787,93.5199632 L103.900983,93.1999678 C103.865082,93.1673763 103.815575,93.1489643 103.763842,93.1489643 C103.71211,93.1489643 103.662602,93.1673763 103.626701,93.1999678 L101.34102,95.1816056 L100.37532,94.3299513 C100.339419,94.2973598 100.289912,94.2789478 100.238179,94.2789478 C100.186447,94.2789478 100.13694,94.2973598 100.101039,94.3299513 L99.7353297,94.6499467 C99.6986801,94.6813029 99.6780209,94.7242608 99.6780209,94.7691116 C99.6780209,94.8139624 99.6986801,94.8569202 99.7353297,94.8882765 L101.201975,96.1815909 C101.237876,96.2141824 101.287383,96.2325945 101.339116,96.2325945 C101.390848,96.2325945 101.440356,96.2141824 101.476257,96.1815909 L104.262883,93.7616263 C104.301597,93.7303459 104.323771,93.6864299 104.324132,93.6403228 C104.324493,93.5942157 104.303008,93.550038 104.264787,93.5182965 L104.264787,93.5199632 Z" id="Shape" fill="#6C63FF" fill-rule="nonzero" opacity="0.1"></path>
                    <rect id="Rectangle" fill="#6C63FF" opacity="0.2" x="28" y="13" width="74" height="7" rx="3.5"></rect>
                    <rect id="Rectangle" fill="#6C63FF" opacity="0.2" x="28" y="27" width="105" height="7" rx="3.5"></rect>
                    <rect id="Rectangle" fill="#6C63FF" opacity="0.1" x="28" y="40" width="81" height="7" rx="3.5"></rect>
                    <rect id="Rectangle" fill="#6C63FF" opacity="0.1" x="28" y="53" width="105" height="7" rx="3.5"></rect>
                    <rect id="Rectangle" fill="#6C63FF" opacity="0.2" x="28" y="66" width="71" height="7" rx="3.5"></rect>
                    <rect id="Rectangle" fill="#6C63FF" opacity="0.1" x="28" y="79" width="105" height="7" rx="3.5"></rect>
                    <rect id="Rectangle" fill="#6C63FF" opacity="0.1" x="28" y="91" width="63" height="7" rx="3.5"></rect>
                    <rect id="Rectangle" fill="#6C63FF" opacity="0.1" x="20" y="3" width="148" height="4"></rect>
                    <ellipse id="Oval" fill="#FEFEFE" cx="23" cy="5.5" rx="1" ry="1"></ellipse>
                    <ellipse id="Oval" fill="#FEFEFE" cx="26" cy="5.5" rx="1" ry="1"></ellipse>
                    <ellipse id="Oval" fill="#FEFEFE" cx="29" cy="5.5" rx="1" ry="1"></ellipse>
                    <path d="M144.255152,29.5144394 L143.893846,29.1999419 C143.858192,29.1674019 143.809024,29.1490189 143.757647,29.1490189 C143.70627,29.1490189 143.657103,29.1674019 143.621448,29.1999419 L142.441056,30.2316269 L142.015434,30.6027007 C142.015434,30.6027007 142.015434,30.6027007 142.015434,30.6027007 L141.979493,30.6326529 L141.758169,30.8273418 L141.362814,31.1717915 L140.403745,30.3214834 C140.368091,30.2889434 140.318923,30.2705604 140.267546,30.2705604 C140.216169,30.2705604 140.167002,30.2889434 140.131347,30.3214834 L139.766258,30.6393089 C139.729266,30.6706727 139.708368,30.7139231 139.708368,30.7591175 C139.708368,30.8043119 139.729266,30.8475623 139.766258,30.8789261 L141.139599,32.098644 L141.22094,32.1701964 C141.251286,32.1967016 141.290322,32.2141619 141.332547,32.2201166 C141.391803,32.2272982 141.451429,32.2094034 141.493338,32.1718604 L142.63968,31.1734555 L143.018011,30.8406539 L144.258935,29.7573846 C144.296652,29.7254649 144.31765,29.6812257 144.316933,29.6351904 C144.316216,29.5891551 144.293849,29.5454384 144.255152,29.5144394 Z M144.255152,29.5144394 L143.893846,29.1999419 C143.858192,29.1674019 143.809024,29.1490189 143.757647,29.1490189 C143.70627,29.1490189 143.657103,29.1674019 143.621448,29.1999419 L142.441056,30.2316269 L142.015434,30.6027007 C142.015434,30.6027007 142.015434,30.6027007 142.015434,30.6027007 L141.979493,30.6326529 L141.758169,30.8273418 L141.362814,31.1717915 L140.403745,30.3214834 C140.368091,30.2889434 140.318923,30.2705604 140.267546,30.2705604 C140.216169,30.2705604 140.167002,30.2889434 140.131347,30.3214834 L139.766258,30.6393089 C139.729266,30.6706727 139.708368,30.7139231 139.708368,30.7591175 C139.708368,30.8043119 139.729266,30.8475623 139.766258,30.8789261 L141.139599,32.098644 L141.22094,32.1701964 C141.251286,32.1967016 141.290322,32.2141619 141.332547,32.2201166 C141.391803,32.2272982 141.451429,32.2094034 141.493338,32.1718604 L142.63968,31.1734555 L143.018011,30.8406539 L144.258935,29.7573846 C144.296652,29.7254649 144.31765,29.6812257 144.316933,29.6351904 C144.316216,29.5891551 144.293849,29.5454384 144.255152,29.5144394 Z M144.255152,29.5144394 L143.893846,29.1999419 C143.858192,29.1674019 143.809024,29.1490189 143.757647,29.1490189 C143.70627,29.1490189 143.657103,29.1674019 143.621448,29.1999419 L142.441056,30.2316269 L142.015434,30.6027007 C142.015434,30.6027007 142.015434,30.6027007 142.015434,30.6027007 L141.979493,30.6326529 L141.758169,30.8273418 L141.362814,31.1717915 L140.403745,30.3214834 C140.368091,30.2889434 140.318923,30.2705604 140.267546,30.2705604 C140.216169,30.2705604 140.167002,30.2889434 140.131347,30.3214834 L139.766258,30.6393089 C139.729266,30.6706727 139.708368,30.7139231 139.708368,30.7591175 C139.708368,30.8043119 139.729266,30.8475623 139.766258,30.8789261 L141.139599,32.098644 L141.22094,32.1701964 C141.251286,32.1967016 141.290322,32.2141619 141.332547,32.2201166 C141.391803,32.2272982 141.451429,32.2094034 141.493338,32.1718604 L142.63968,31.1734555 L143.018011,30.8406539 L144.258935,29.7573846 C144.296652,29.7254649 144.31765,29.6812257 144.316933,29.6351904 C144.316216,29.5891551 144.293849,29.5454384 144.255152,29.5144394 Z M144.255152,29.5144394 L143.893846,29.1999419 C143.858192,29.1674019 143.809024,29.1490189 143.757647,29.1490189 C143.70627,29.1490189 143.657103,29.1674019 143.621448,29.1999419 L142.441056,30.2316269 L142.015434,30.6027007 C142.015434,30.6027007 142.015434,30.6027007 142.015434,30.6027007 L141.979493,30.6326529 L141.758169,30.8273418 L141.362814,31.1717915 L140.403745,30.3214834 C140.368091,30.2889434 140.318923,30.2705604 140.267546,30.2705604 C140.216169,30.2705604 140.167002,30.2889434 140.131347,30.3214834 L139.766258,30.6393089 C139.729266,30.6706727 139.708368,30.7139231 139.708368,30.7591175 C139.708368,30.8043119 139.729266,30.8475623 139.766258,30.8789261 L141.139599,32.098644 L141.22094,32.1701964 C141.251286,32.1967016 141.290322,32.2141619 141.332547,32.2201166 C141.391803,32.2272982 141.451429,32.2094034 141.493338,32.1718604 L142.63968,31.1734555 L143.018011,30.8406539 L144.258935,29.7573846 C144.296652,29.7254649 144.31765,29.6812257 144.316933,29.6351904 C144.316216,29.5891551 144.293849,29.5454384 144.255152,29.5144394 Z M142.005976,27.0001232 C140.055008,26.9858129 138.381012,28.2199016 138.055916,29.9121528 C137.730819,31.6044041 138.850865,33.2538365 140.698843,33.8042524 C140.74046,33.8175644 140.782076,33.8308765 140.825584,33.8408605 C141.693591,34.0795283 142.628411,34.0489849 143.473899,33.7543321 C143.670814,33.6861879 143.860682,33.6032349 144.041395,33.5063949 C145.5893,32.7053832 146.333759,31.0904621 145.85726,29.5673223 C145.380762,28.0441826 143.801832,26.9916952 142.005976,27.0001232 Z M143.415258,33.0354806 C143.281956,33.0933707 143.144149,33.1428608 143.002877,33.1835773 C142.400282,33.3550094 141.753751,33.3671592 141.143382,33.2185215 C141.058257,33.1968894 140.973133,33.1735933 140.891792,33.1469692 C139.458749,32.6817503 138.595487,31.3939457 138.826294,30.0656804 C139.057101,28.7374151 140.318278,27.7352615 141.843873,27.6678597 C143.369467,27.6004578 144.738448,28.4864091 145.119389,29.787647 C145.500329,31.0888848 144.788099,32.4462958 143.415258,33.0354806 Z M144.255152,29.5144394 L143.893846,29.1999419 C143.858192,29.1674019 143.809024,29.1490189 143.757647,29.1490189 C143.70627,29.1490189 143.657103,29.1674019 143.621448,29.1999419 L142.441056,30.2316269 L142.015434,30.6027007 C142.015434,30.6027007 142.015434,30.6027007 142.015434,30.6027007 L141.979493,30.6326529 L141.758169,30.8273418 L141.362814,31.1717915 L140.403745,30.3214834 C140.368091,30.2889434 140.318923,30.2705604 140.267546,30.2705604 C140.216169,30.2705604 140.167002,30.2889434 140.131347,30.3214834 L139.766258,30.6393089 C139.729266,30.6706727 139.708368,30.7139231 139.708368,30.7591175 C139.708368,30.8043119 139.729266,30.8475623 139.766258,30.8789261 L141.139599,32.098644 L141.22094,32.1701964 C141.251286,32.1967016 141.290322,32.2141619 141.332547,32.2201166 C141.391803,32.2272982 141.451429,32.2094034 141.493338,32.1718604 L142.63968,31.1734555 L143.018011,30.8406539 L144.258935,29.7573846 C144.296652,29.7254649 144.31765,29.6812257 144.316933,29.6351904 C144.316216,29.5891551 144.293849,29.5454384 144.255152,29.5144394 Z M144.255152,29.5144394 L143.893846,29.1999419 C143.858192,29.1674019 143.809024,29.1490189 143.757647,29.1490189 C143.70627,29.1490189 143.657103,29.1674019 143.621448,29.1999419 L142.441056,30.2316269 L142.015434,30.6027007 C142.015434,30.6027007 142.015434,30.6027007 142.015434,30.6027007 L141.979493,30.6326529 L141.758169,30.8273418 L141.362814,31.1717915 L140.403745,30.3214834 C140.368091,30.2889434 140.318923,30.2705604 140.267546,30.2705604 C140.216169,30.2705604 140.167002,30.2889434 140.131347,30.3214834 L139.766258,30.6393089 C139.729266,30.6706727 139.708368,30.7139231 139.708368,30.7591175 C139.708368,30.8043119 139.729266,30.8475623 139.766258,30.8789261 L141.139599,32.098644 L141.22094,32.1701964 C141.251286,32.1967016 141.290322,32.2141619 141.332547,32.2201166 C141.391803,32.2272982 141.451429,32.2094034 141.493338,32.1718604 L142.63968,31.1734555 L143.018011,30.8406539 L144.258935,29.7573846 C144.296652,29.7254649 144.31765,29.6812257 144.316933,29.6351904 C144.316216,29.5891551 144.293849,29.5454384 144.255152,29.5144394 Z M144.255152,29.5144394 L143.893846,29.1999419 C143.858192,29.1674019 143.809024,29.1490189 143.757647,29.1490189 C143.70627,29.1490189 143.657103,29.1674019 143.621448,29.1999419 L142.441056,30.2316269 L142.015434,30.6027007 C142.015434,30.6027007 142.015434,30.6027007 142.015434,30.6027007 L141.979493,30.6326529 L141.758169,30.8273418 L141.362814,31.1717915 L140.403745,30.3214834 C140.368091,30.2889434 140.318923,30.2705604 140.267546,30.2705604 C140.216169,30.2705604 140.167002,30.2889434 140.131347,30.3214834 L139.766258,30.6393089 C139.729266,30.6706727 139.708368,30.7139231 139.708368,30.7591175 C139.708368,30.8043119 139.729266,30.8475623 139.766258,30.8789261 L141.139599,32.098644 L141.22094,32.1701964 C141.251286,32.1967016 141.290322,32.2141619 141.332547,32.2201166 C141.391803,32.2272982 141.451429,32.2094034 141.493338,32.1718604 L142.63968,31.1734555 L143.018011,30.8406539 L144.258935,29.7573846 C144.296652,29.7254649 144.31765,29.6812257 144.316933,29.6351904 C144.316216,29.5891551 144.293849,29.5454384 144.255152,29.5144394 Z M144.255152,29.5144394 L143.893846,29.1999419 C143.858192,29.1674019 143.809024,29.1490189 143.757647,29.1490189 C143.70627,29.1490189 143.657103,29.1674019 143.621448,29.1999419 L142.441056,30.2316269 L142.015434,30.6027007 C142.015434,30.6027007 142.015434,30.6027007 142.015434,30.6027007 L141.979493,30.6326529 L141.758169,30.8273418 L141.362814,31.1717915 L140.403745,30.3214834 C140.368091,30.2889434 140.318923,30.2705604 140.267546,30.2705604 C140.216169,30.2705604 140.167002,30.2889434 140.131347,30.3214834 L139.766258,30.6393089 C139.729266,30.6706727 139.708368,30.7139231 139.708368,30.7591175 C139.708368,30.8043119 139.729266,30.8475623 139.766258,30.8789261 L141.139599,32.098644 L141.22094,32.1701964 C141.251286,32.1967016 141.290322,32.2141619 141.332547,32.2201166 C141.391803,32.2272982 141.451429,32.2094034 141.493338,32.1718604 L142.63968,31.1734555 L143.018011,30.8406539 L144.258935,29.7573846 C144.296652,29.7254649 144.31765,29.6812257 144.316933,29.6351904 C144.316216,29.5891551 144.293849,29.5454384 144.255152,29.5144394 Z M144.255152,29.5144394 L143.893846,29.1999419 C143.858192,29.1674019 143.809024,29.1490189 143.757647,29.1490189 C143.70627,29.1490189 143.657103,29.1674019 143.621448,29.1999419 L142.441056,30.2316269 L142.015434,30.6027007 C142.015434,30.6027007 142.015434,30.6027007 142.015434,30.6027007 L141.979493,30.6326529 L141.758169,30.8273418 L141.362814,31.1717915 L140.403745,30.3214834 C140.368091,30.2889434 140.318923,30.2705604 140.267546,30.2705604 C140.216169,30.2705604 140.167002,30.2889434 140.131347,30.3214834 L139.766258,30.6393089 C139.729266,30.6706727 139.708368,30.7139231 139.708368,30.7591175 C139.708368,30.8043119 139.729266,30.8475623 139.766258,30.8789261 L141.139599,32.098644 L141.22094,32.1701964 C141.251286,32.1967016 141.290322,32.2141619 141.332547,32.2201166 C141.391803,32.2272982 141.451429,32.2094034 141.493338,32.1718604 L142.63968,31.1734555 L143.018011,30.8406539 L144.258935,29.7573846 C144.296652,29.7254649 144.31765,29.6812257 144.316933,29.6351904 C144.316216,29.5891551 144.293849,29.5454384 144.255152,29.5144394 Z" id="Shape" fill="#3ACC6C" fill-rule="nonzero" opacity="0.7"></path>
                    <path d="M126,13 C123.790861,13 122,14.5670034 122,16.5 C122,18.4329966 123.790861,20 126,20 C128.209139,20 130,18.4329966 130,16.5 C130,14.5670034 128.209139,13 126,13 Z M126,19.3333333 C124.211649,19.3333333 122.761905,18.0648068 122.761905,16.5 C122.761905,14.9351932 124.211649,13.6666667 126,13.6666667 C127.788351,13.6666667 129.238095,14.9351932 129.238095,16.5 C129.239619,17.2515487 128.898831,17.9726512 128.29113,18.5037644 C127.683428,19.0348775 126.85891,19.3322181 126,19.33 L126,19.3333333 Z" id="Shape" fill="#6C63FF" fill-rule="nonzero" opacity="0.1"></path>
                    <path d="M127.523568,17.9458138 L127.944946,17.5255797 C127.980194,17.4903465 128,17.4425288 128,17.3926648 C128,17.3428007 127.980194,17.294983 127.944946,17.2597498 L127.184876,16.5004632 L127.943356,15.7411765 C127.978604,15.7059433 127.99841,15.6581256 127.99841,15.6082616 C127.99841,15.5583975 127.978604,15.5105798 127.943356,15.4753466 L127.521978,15.0551125 C127.487054,15.0199235 127.43955,15.0001352 127.389999,15.0001352 C127.340448,15.0001352 127.292944,15.0199235 127.25802,15.0551125 L126.49954,15.8143991 L125.74106,15.0551125 C125.705864,15.0198274 125.658097,15 125.608286,15 C125.558475,15 125.510708,15.0198274 125.475512,15.0551125 L125.055724,15.4753466 C125.020081,15.510368 125,15.558265 125,15.6082616 C125,15.6582581 125.020081,15.7061551 125.055724,15.7411765 L125.814204,16.5004632 L125.057314,17.258158 C125.021671,17.2931794 125.00159,17.3410764 125.00159,17.391073 C125.00159,17.4410695 125.021671,17.4889665 125.057314,17.5239879 L125.477102,17.944222 C125.512298,17.9795072 125.560065,17.9993345 125.609876,17.9993345 C125.659687,17.9993345 125.707454,17.9795072 125.74265,17.944222 L126.50113,17.1849354 L127.25961,17.944222 C127.294322,17.9796225 127.341707,17.9996978 127.391258,17.9999966 C127.44081,18.0002954 127.488433,17.9807931 127.523568,17.9458138 Z" id="Path" fill="#6C63FF" opacity="0.1"></path>
                    <path d="M152,30.5000072 C152,32.4329998 153.790857,34 155.999992,34 C158.209126,34 159.999984,32.4329998 159.999984,30.5000072 C160.000922,30.2139678 159.961717,29.9314625 159.885089,29.6582564 C159.712824,29.0440749 159.351427,28.4768888 158.831777,28.0221953 C158.080971,27.3652405 157.061787,26.9973485 155.999992,27.0000144 C153.790857,27.0000144 152,28.5670145 152,30.5000072 Z M152.864046,31.224713 C152.487685,29.980032 153.117746,28.6697991 154.397906,28.0350021 C155.678065,27.400205 157.286428,27.6004628 158.313402,28.5225218 C159.340377,29.4445809 159.527732,30.8565904 158.76951,31.9600042 C158.184512,32.8100087 157.133969,33.3303128 155.999992,33.331668 C154.528555,33.3355494 153.240407,32.469394 152.864046,31.224713 Z" id="Shape" fill="#6C63FF" fill-rule="nonzero" opacity="0.1"></path>
                    <path d="M157.522956,31.9436869 L157.944875,31.5237369 C157.980168,31.4885275 158,31.4407422 158,31.3909119 C158,31.3410815 157.980168,31.2932962 157.944875,31.2580868 L157.183828,30.4993135 L157.944875,29.7405403 C157.980072,29.7056029 157.999865,29.6580808 157.999865,29.6085105 C157.999865,29.5589403 157.980072,29.5114181 157.944875,29.4764808 L157.522956,29.0549401 C157.487987,29.0197749 157.440422,29 157.390807,29 C157.341193,29 157.293628,29.0197749 157.258659,29.0549401 L156.500796,29.8137134 L155.741341,29.0549401 C155.706372,29.0197749 155.658807,29 155.609193,29 C155.559578,29 155.512013,29.0197749 155.477044,29.0549401 L155.055125,29.4764808 C155.019928,29.5114181 155.000135,29.5589403 155.000135,29.6085105 C155.000135,29.6580808 155.019928,29.7056029 155.055125,29.7405403 L155.81458,30.4993135 L155.055125,31.2580868 C155.019832,31.2932962 155,31.3410815 155,31.3909119 C155,31.4407422 155.019832,31.4885275 155.055125,31.5237369 L155.477044,31.9436869 C155.511575,31.9796612 155.559304,32 155.609193,32 C155.659081,32 155.70681,31.9796612 155.741341,31.9436869 L156.500796,31.1849137 L157.261843,31.9436869 C157.334316,32.0148312 157.450483,32.0148312 157.522956,31.9436869 Z" id="Path" fill="#6C63FF" opacity="0.1"></path>
                    <path d="M121.264762,42.52 L120.900952,42.1983333 C120.865051,42.1657414 120.815543,42.147329 120.76381,42.147329 C120.712076,42.147329 120.662568,42.1657414 120.626667,42.1983333 L118.340952,44.18 L117.375238,43.3283333 C117.339337,43.2957414 117.289829,43.277329 117.238095,43.277329 C117.186362,43.277329 117.136854,43.2957414 117.100952,43.3283333 L116.733333,43.6466667 C116.696085,43.6780805 116.675043,43.7214 116.675043,43.7666667 C116.675043,43.8119333 116.696085,43.8552528 116.733333,43.8866667 L118.198095,45.18 C118.233997,45.212592 118.283505,45.2310043 118.335238,45.2310043 C118.386971,45.2310043 118.436479,45.212592 118.472381,45.18 L121.260952,42.76 C121.298704,42.7290411 121.320437,42.6859766 121.321156,42.6407085 C121.321874,42.5954404 121.301516,42.5518643 121.264762,42.52 Z M121.264762,42.52 L120.900952,42.1983333 C120.865051,42.1657414 120.815543,42.147329 120.76381,42.147329 C120.712076,42.147329 120.662568,42.1657414 120.626667,42.1983333 L118.340952,44.18 L117.375238,43.3283333 C117.339337,43.2957414 117.289829,43.277329 117.238095,43.277329 C117.186362,43.277329 117.136854,43.2957414 117.100952,43.3283333 L116.733333,43.6466667 C116.696085,43.6780805 116.675043,43.7214 116.675043,43.7666667 C116.675043,43.8119333 116.696085,43.8552528 116.733333,43.8866667 L118.198095,45.18 C118.233997,45.212592 118.283505,45.2310043 118.335238,45.2310043 C118.386971,45.2310043 118.436479,45.212592 118.472381,45.18 L121.260952,42.76 C121.298704,42.7290411 121.320437,42.6859766 121.321156,42.6407085 C121.321874,42.5954404 121.301516,42.5518643 121.264762,42.52 Z M121.264762,42.52 L120.900952,42.1983333 C120.865051,42.1657414 120.815543,42.147329 120.76381,42.147329 C120.712076,42.147329 120.662568,42.1657414 120.626667,42.1983333 L118.340952,44.18 L117.375238,43.3283333 C117.339337,43.2957414 117.289829,43.277329 117.238095,43.277329 C117.186362,43.277329 117.136854,43.2957414 117.100952,43.3283333 L116.733333,43.6466667 C116.696085,43.6780805 116.675043,43.7214 116.675043,43.7666667 C116.675043,43.8119333 116.696085,43.8552528 116.733333,43.8866667 L118.198095,45.18 C118.233997,45.212592 118.283505,45.2310043 118.335238,45.2310043 C118.386971,45.2310043 118.436479,45.212592 118.472381,45.18 L121.260952,42.76 C121.298704,42.7290411 121.320437,42.6859766 121.321156,42.6407085 C121.321874,42.5954404 121.301516,42.5518643 121.264762,42.52 Z M121.264762,42.52 L120.900952,42.1983333 C120.865051,42.1657414 120.815543,42.147329 120.76381,42.147329 C120.712076,42.147329 120.662568,42.1657414 120.626667,42.1983333 L118.340952,44.18 L117.375238,43.3283333 C117.339337,43.2957414 117.289829,43.277329 117.238095,43.277329 C117.186362,43.277329 117.136854,43.2957414 117.100952,43.3283333 L116.733333,43.6466667 C116.696085,43.6780805 116.675043,43.7214 116.675043,43.7666667 C116.675043,43.8119333 116.696085,43.8552528 116.733333,43.8866667 L118.198095,45.18 C118.233997,45.212592 118.283505,45.2310043 118.335238,45.2310043 C118.386971,45.2310043 118.436479,45.212592 118.472381,45.18 L121.260952,42.76 C121.298704,42.7290411 121.320437,42.6859766 121.321156,42.6407085 C121.321874,42.5954404 121.301516,42.5518643 121.264762,42.52 Z M119,40 C116.790861,40 115,41.5670034 115,43.5 C115,45.4329966 116.790861,47 119,47 C121.209139,47 123,45.4329966 123,43.5 C123,41.5670034 121.209139,40 119,40 Z M119,46.3333333 C117.690313,46.3333333 116.509586,45.6430138 116.00839,44.5842697 C115.507194,43.5255256 115.784232,42.3068584 116.710321,41.4965308 C117.63641,40.6862031 119.029172,40.4437952 120.239165,40.8823413 C121.449159,41.3208875 122.238095,42.3540236 122.238095,43.5 C122.240127,44.2518372 121.899563,44.973369 121.291806,45.5048432 C120.684049,46.0363175 119.859241,46.3338866 119,46.3316667 L119,46.3333333 Z M121.264762,42.5216667 L120.900952,42.2 C120.865051,42.167408 120.815543,42.1489957 120.76381,42.1489957 C120.712076,42.1489957 120.662568,42.167408 120.626667,42.2 L118.340952,44.1816667 L117.375238,43.33 C117.339337,43.297408 117.289829,43.2789957 117.238095,43.2789957 C117.186362,43.2789957 117.136854,43.297408 117.100952,43.33 L116.733333,43.6483333 C116.696085,43.6797472 116.675043,43.7230667 116.675043,43.7683333 C116.675043,43.8136 116.696085,43.8569195 116.733333,43.8883333 L118.198095,45.1816667 C118.233997,45.2142586 118.283505,45.232671 118.335238,45.232671 C118.386971,45.232671 118.436479,45.2142586 118.472381,45.1816667 L121.260952,42.7616667 C121.299307,42.7306602 121.321431,42.6872356 121.322151,42.641549 C121.322871,42.5958623 121.302124,42.5519203 121.264762,42.52 L121.264762,42.5216667 Z M121.264762,42.5216667 L120.900952,42.2 C120.865051,42.167408 120.815543,42.1489957 120.76381,42.1489957 C120.712076,42.1489957 120.662568,42.167408 120.626667,42.2 L118.340952,44.1816667 L117.375238,43.33 C117.339337,43.297408 117.289829,43.2789957 117.238095,43.2789957 C117.186362,43.2789957 117.136854,43.297408 117.100952,43.33 L116.733333,43.6483333 C116.696085,43.6797472 116.675043,43.7230667 116.675043,43.7683333 C116.675043,43.8136 116.696085,43.8569195 116.733333,43.8883333 L118.198095,45.1816667 C118.233997,45.2142586 118.283505,45.232671 118.335238,45.232671 C118.386971,45.232671 118.436479,45.2142586 118.472381,45.1816667 L121.260952,42.7616667 C121.299307,42.7306602 121.321431,42.6872356 121.322151,42.641549 C121.322871,42.5958623 121.302124,42.5519203 121.264762,42.52 L121.264762,42.5216667 Z M121.264762,42.5216667 L120.900952,42.2 C120.865051,42.167408 120.815543,42.1489957 120.76381,42.1489957 C120.712076,42.1489957 120.662568,42.167408 120.626667,42.2 L118.340952,44.1816667 L117.375238,43.33 C117.339337,43.297408 117.289829,43.2789957 117.238095,43.2789957 C117.186362,43.2789957 117.136854,43.297408 117.100952,43.33 L116.733333,43.6483333 C116.696085,43.6797472 116.675043,43.7230667 116.675043,43.7683333 C116.675043,43.8136 116.696085,43.8569195 116.733333,43.8883333 L118.198095,45.1816667 C118.233997,45.2142586 118.283505,45.232671 118.335238,45.232671 C118.386971,45.232671 118.436479,45.2142586 118.472381,45.1816667 L121.260952,42.7616667 C121.299307,42.7306602 121.321431,42.6872356 121.322151,42.641549 C121.322871,42.5958623 121.302124,42.5519203 121.264762,42.52 L121.264762,42.5216667 Z M121.264762,42.5216667 L120.900952,42.2 C120.865051,42.167408 120.815543,42.1489957 120.76381,42.1489957 C120.712076,42.1489957 120.662568,42.167408 120.626667,42.2 L118.340952,44.1816667 L117.375238,43.33 C117.339337,43.297408 117.289829,43.2789957 117.238095,43.2789957 C117.186362,43.2789957 117.136854,43.297408 117.100952,43.33 L116.733333,43.6483333 C116.696085,43.6797472 116.675043,43.7230667 116.675043,43.7683333 C116.675043,43.8136 116.696085,43.8569195 116.733333,43.8883333 L118.198095,45.1816667 C118.233997,45.2142586 118.283505,45.232671 118.335238,45.232671 C118.386971,45.232671 118.436479,45.2142586 118.472381,45.1816667 L121.260952,42.7616667 C121.299307,42.7306602 121.321431,42.6872356 121.322151,42.641549 C121.322871,42.5958623 121.302124,42.5519203 121.264762,42.52 L121.264762,42.5216667 Z M121.264762,42.5216667 L120.900952,42.2 C120.865051,42.167408 120.815543,42.1489957 120.76381,42.1489957 C120.712076,42.1489957 120.662568,42.167408 120.626667,42.2 L118.340952,44.1816667 L117.375238,43.33 C117.339337,43.297408 117.289829,43.2789957 117.238095,43.2789957 C117.186362,43.2789957 117.136854,43.297408 117.100952,43.33 L116.733333,43.6483333 C116.696085,43.6797472 116.675043,43.7230667 116.675043,43.7683333 C116.675043,43.8136 116.696085,43.8569195 116.733333,43.8883333 L118.198095,45.1816667 C118.233997,45.2142586 118.283505,45.232671 118.335238,45.232671 C118.386971,45.232671 118.436479,45.2142586 118.472381,45.1816667 L121.260952,42.7616667 C121.299307,42.7306602 121.321431,42.6872356 121.322151,42.641549 C121.322871,42.5958623 121.302124,42.5519203 121.264762,42.52 L121.264762,42.5216667 Z" id="Shape" fill="#6C63FF" fill-rule="nonzero" opacity="0.1"></path>
                </g>
                <g id="People" transform="translate(107.000000, 28.000000)">
                    <ellipse id="Oval" fill="#6C63FF" opacity="0.1" cx="21" cy="113" rx="21" ry="1"></ellipse>
                    <path d="M39.5951024,39.6199914 C39.5951024,39.6199914 34.5446026,30.4445938 35.3980311,28.9516719 C36.2514596,27.4587501 36.8749115,25.2979422 36.8749115,25.2979422 C36.8749115,25.2979422 38.7398773,24.0300301 38.7398773,23.5121505 C38.7398773,22.994271 40.2167577,21.7960047 40.9947251,21.2745536 C41.7726926,20.7531024 41.3828105,18.2904957 40.9947251,17.9922685 C40.6066398,17.6940413 39.9903746,16.6493532 39.9903746,16.6493532 C39.9903746,16.6493532 40.529382,15.1582171 39.9903746,14.7099834 C39.4513671,14.2617497 40.069429,13.8170876 39.9903746,13.3670681 C39.9113202,12.9170486 39.9903746,11.2794776 39.9903746,11.2794776 C39.3597359,10.4080113 38.6608229,10.0008508 38.0032338,9.8508443 L37.9457396,9.6151198 L37.6133517,8.22398809 C37.6133517,8.22398809 39.2303741,5.14349747 36.6072045,3.5309276 C36.4216579,3.41547341 36.2276715,3.31399469 36.0268731,3.22734301 C36.0268731,3.22734301 36.0268731,3.15233976 36.0124996,3.02554856 C35.9765658,2.56481431 35.8669676,1.4094071 35.631601,0.666517766 C35.4950524,0.234356183 35.31718,-0.0567278579 35.0925935,0.00934643368 C35.0374427,0.025222871 34.9869226,0.0540038746 34.9452648,0.0932786419 C34.8383676,0.189552962 34.7447292,0.299436055 34.6667777,0.420078517 C34.6636664,0.427251292 34.6594205,0.433883032 34.6542008,0.439722225 C34.3563685,0.971067002 34.1476139,1.54708806 34.0361389,2.14515327 C33.9564667,2.4987551 33.8964858,2.85645717 33.8564698,3.21662826 C33.7428393,3.43112711 33.6426331,3.65239042 33.5564223,3.87915697 C33.2384079,4.69883535 32.8664928,6.11853972 33.5438455,7.16858522 C34.1187867,8.06148105 34.8931608,9.28831993 35.4555252,10.1812158 L35.4734921,10.2097884 L35.5076293,10.265148 L35.4483385,10.3026496 L35.4573219,10.4401555 L35.509426,11.1919738 L35.9532088,17.6868981 C35.8225033,17.6492408 35.6891886,17.6211878 35.5543433,17.6029659 C35.3622226,17.5750332 35.1681541,17.5624923 34.9740119,17.5654643 C34.59491,16.085043 33.5546256,14.7081976 33.365973,13.161702 C33.3468544,13.0070445 33.3366565,12.8514262 33.3354293,12.6956104 C33.3515995,11.722354 33.5959495,10.7455259 33.5761859,9.77405526 C33.5761859,9.59547609 33.5761859,9.41689693 33.558219,9.23831776 C33.558219,9.19010138 33.558219,9.14009922 33.5438455,9.09009705 C33.3442108,7.65519784 32.4454626,6.41046321 31.1416689,5.76316718 C30.6906994,5.53994322 30.2019993,5.39172251 29.7636065,5.14706905 C28.7502725,4.58275889 28.1016669,3.56485764 27.1817609,2.8666131 C26.4972214,2.34694772 25.4749039,2.06836422 24.71131,2.3308756 C24.3064889,2.39152424 23.9052461,2.47378969 23.5093234,2.57731485 C22.5442111,2.82832778 21.6185679,3.21052088 20.7585887,3.71307835 C20.6418038,3.78272422 20.5250188,3.85415589 20.413624,3.93630231 C20.1703995,4.09406136 19.9777393,4.31777777 19.8584463,4.5809731 C19.7812225,4.80400751 19.751845,5.0406435 19.7722051,5.27564605 C19.7722051,5.44529626 19.7722051,5.61851805 19.7829852,5.78816826 C19.7326779,8.64543493 16.6351817,10.856245 16.3800515,13.6456516 C16.3800515,13.7117259 16.3692714,13.7778002 16.365678,13.8438745 C16.365678,13.8635182 16.365678,13.8831619 16.365678,13.9045914 C16.365678,13.984952 16.365678,14.0670984 16.365678,14.1492448 C16.365678,14.1867465 16.365678,14.2224623 16.365678,14.2599639 C16.365678,14.2974655 16.365678,14.3349672 16.365678,14.3724688 C16.4105953,15.5957361 17.0502175,16.7350712 17.1670024,17.9529811 C17.1777826,18.0619144 17.1831726,18.1690619 17.1849693,18.2779952 C17.1651062,18.8375288 17.0578196,19.3905891 16.8669549,19.9173519 C16.4776022,20.0204904 16.1027723,20.1716725 15.7512095,20.3673714 C14.8097432,20.9691832 13.110073,22.008514 12.4902144,23.9961001 C12.3308252,24.512114 12.2514591,25.0492516 12.2548478,25.5890262 C12.244368,27.4963859 12.0688431,29.3993151 11.7302139,31.2767727 C11.6518588,31.7497391 11.5414097,32.2168968 11.3996227,32.6750476 C11.3862824,32.7196087 11.3826081,32.7664763 11.3888425,32.8125535 L11.0151307,37.634191 L10.9486531,38.4824421 L10.8552252,39.6896372 C10.8552252,39.6896372 10.8821755,39.7628547 10.9217027,39.8860743 C10.9802646,40.0691996 11.0294374,40.2551611 11.0690314,40.4432413 C11.1735044,40.8518933 11.1900348,41.2778591 11.1175421,41.6932955 C11.0806184,41.869808 10.9888639,42.0303413 10.8552252,42.1522439 C10.8437318,42.1623157 10.8334791,42.173705 10.8246814,42.186174 C10.7186766,42.3343947 10.623452,42.7754852 10.5408041,43.4147986 C10.5084637,43.6648095 10.4779199,43.9505361 10.4473762,44.2469776 C10.267707,46.1488457 10.1563122,48.9953976 10.0880379,51.349071 C10.023357,53.6706002 10,55.5046082 10,55.5046082 C10.3025331,55.6986454 10.6262037,55.8580012 10.9648233,55.9796288 C10.9396697,56.0421315 10.9127193,56.10642 10.8875656,56.1742801 C10.5821044,56.9622422 10.3850841,57.7875906 10.3018442,58.6279578 C10.1509221,60.383391 10.6450122,62.3334755 13.1082763,63.3370905 C13.265658,63.4021266 13.4270965,63.4570048 13.5915863,63.5013833 C14.1305938,63.6442466 14.5276626,63.6049592 14.8205233,63.42638 C14.8205233,63.5317418 14.8331001,63.6335319 14.8384902,63.735322 C14.8636439,64.1710552 14.8852042,64.5692867 14.8959843,64.9032298 C14.9732421,66.992606 15.4942826,70.6463357 15.4942826,70.6463357 C15.4942826,70.6463357 15.6739518,72.1392576 15.5176396,72.5857055 C15.3613274,73.0321534 15.5176396,74.8233025 15.5176396,74.8233025 C15.5176396,74.8233025 16.0566471,75.7161983 15.5176396,76.1662178 C14.9786322,76.6162373 14.8187266,78.8449053 14.9786322,79.1502757 C14.9805766,79.1615031 14.9805766,79.1729782 14.9786322,79.1842057 C15.0972138,79.9253092 14.4270479,90.9365006 14.4270479,90.9365006 C14.4270479,90.9365006 13.7928158,92.622288 13.2879455,94.3723638 C12.795652,96.0760091 12.4255335,97.8403712 12.8818932,98.1707427 C13.1082763,98.3350355 13.6347069,98.4582551 14.3030762,98.5529021 C14.3030762,98.6261196 14.292296,98.699337 14.2851092,98.7743403 C14.2204283,99.5618744 14.1180169,100.410125 13.9706882,100.62442 C13.7568819,100.928005 13.5322955,103.281678 13.4316808,104.553162 L13.4209006,104.69424 C13.1907389,105.236729 12.9974598,105.793957 12.842366,106.362169 C12.842366,106.362169 11.1229322,110.648069 11.7050602,111.760617 C11.7592741,111.860582 11.8317845,111.94961 11.9188665,112.023129 C11.9361053,112.041201 11.9547268,112.057918 11.974564,112.073131 C12.8028387,112.732088 14.8780174,112.869594 15.6308312,112.899952 L15.6020841,113.960713 L15.6020841,114 L16.581281,114 L16.581281,113.973213 C16.581281,113.839279 16.6028413,113.224966 16.6351817,112.403502 C16.6351817,112.257067 16.6459619,112.103489 16.6531486,111.94634 C16.6531486,111.82312 16.6657255,111.698115 16.6711156,111.569538 C16.9593696,110.808275 17.103728,110.000655 17.0969314,109.187291 C17.0979654,108.253213 17.2248619,107.323479 17.4742367,106.422886 C17.5973906,105.958996 17.7640137,105.507598 17.9719202,105.074613 C17.9719202,105.074613 18.2773578,103.467401 17.8515419,102.329851 C17.7703596,102.103978 17.6486072,101.894624 17.4922036,101.711968 C17.4922036,101.674466 17.4922036,101.636964 17.4922036,101.597677 C17.4922036,101.558389 17.4922036,101.511959 17.4922036,101.467314 C17.4922036,101.422669 17.4922036,101.394097 17.4922036,101.354809 C17.4826193,100.58554 17.559759,99.8176241 17.7221801,99.0654243 C17.7213355,99.0535338 17.7213355,99.041599 17.7221801,99.0297085 C17.7365536,98.9672058 17.7527238,98.9082746 17.7688941,98.8511293 L17.7796742,98.8118419 L18.0976886,98.8225566 C19.0732921,98.8493435 19.790172,98.8493435 19.790172,98.8493435 C19.790172,98.8493435 20.5681394,94.8956008 20.4908817,93.1812408 C20.4908817,93.1062375 20.4908817,93.0276627 20.4908817,92.9490879 C20.4639313,91.2454426 20.9616149,88.9292708 20.9616149,88.9292708 L21.5832701,82.8879376 C21.5832701,82.8879376 21.2724425,81.8414637 21.5832701,81.1021459 C21.7755161,80.6414117 22.1725849,79.7860175 22.4492754,79.1967062 C22.5786372,78.9234801 22.6810486,78.7091851 22.7241692,78.6163239 L22.7493229,78.5663218 C22.6513412,78.5329431 22.5582873,78.4866984 22.4726324,78.4288158 C22.2192989,78.2609514 21.9929158,77.9323657 22.7511196,77.4484162 C23.9171724,76.7019553 23.529087,74.8375888 23.529087,74.8375888 C23.529087,74.8375888 23.1859189,74.1661311 23.5901745,73.5696767 C23.9944301,72.9732223 23.5901745,70.7356253 23.5901745,70.7356253 C23.9199731,70.1413628 24.1838382,69.5132456 24.3771254,68.8623299 C24.6663927,67.969434 25.3976462,63.6031734 25.742611,61.497725 C25.8558025,60.8066237 25.9222801,60.3601758 25.9222801,60.3601758 L25.9330603,60.469109 L25.9438404,60.5869713 L26.0408617,61.5816573 L26.0534386,61.7138058 L26.2331077,63.5942445 C26.2331077,63.5942445 26.592446,68.5373158 26.3678596,70.4748997 C26.3678596,70.4874003 26.3678596,70.4999008 26.3678596,70.5106156 C26.3503411,70.7113405 26.3062407,70.9088887 26.2367011,71.098141 C25.8234621,72.0267527 25.8989231,75.7161983 25.9204834,76.5323051 C25.9204834,76.5983794 25.9204834,76.6519531 25.9204834,76.6965979 C25.9204834,76.7412427 25.6276227,77.4252009 25.7012871,77.9573668 C25.7162125,78.0922246 25.7650224,78.2211854 25.8432257,78.3323831 C25.9508286,78.5060666 25.9993351,78.7095596 25.9815709,78.9127654 L25.9815709,78.9306233 C25.9796718,79.0166983 25.9724715,79.102577 25.9600106,79.1877773 C25.9055148,79.5334148 25.8139611,79.8722635 25.6869135,80.1985354 C25.6869135,80.1985354 25.2700811,81.2878683 25.4281899,81.8575358 C25.4281899,81.8575358 25.4281899,81.8575358 25.4281899,81.8575358 C25.4471829,81.9313927 25.4821297,82.0002529 25.5306014,82.0593303 C25.5670725,82.1251226 25.5873879,82.1985488 25.5898922,82.2736253 C25.5890461,82.2801462 25.5890461,82.2867481 25.5898922,82.293269 C25.7354242,83.4951068 25.3599157,88.8006938 25.1371259,91.7043911 C25.0472913,92.8508693 24.9826104,93.6223313 24.9826104,93.6223313 L24.3771254,99.9690349 L24.4382129,100.011894 C24.5082839,100.061896 24.6394424,100.147614 24.8155181,100.25119 C24.8155181,100.25119 24.8155181,100.260119 24.8155181,100.265476 L24.7885678,100.456556 C24.7005299,101.067297 24.5819482,101.778042 24.4525865,102.320923 C24.4418063,102.361996 24.4328228,102.401283 24.4220427,102.438785 C24.1862604,102.479719 23.9616736,102.56913 23.7626569,102.701296 C22.4546655,105.010325 23.0332002,106.840761 23.7626569,107.372927 C23.9692764,107.522934 24.1094184,107.942595 24.2028463,108.464046 L24.3825155,110.765931 C24.3825155,110.858792 24.3825155,110.94451 24.3825155,111.030228 C24.3827594,111.10181 24.3942779,111.172912 24.4166526,111.240952 L24.4723501,111.939196 L24.5478111,112.910667 L25.1443127,112.910667 L25.1443127,111.735616 L25.1766531,111.735616 C26.1181195,111.76776 27.6363238,111.807048 28.2975063,111.75526 L28.3154732,111.75526 C28.3855442,111.75526 28.444835,111.742759 28.4951423,111.735616 C28.5309054,111.730279 28.5658927,111.720686 28.5993504,111.707044 C28.9497053,111.539179 29.8228974,109.078358 29.0359465,108.519405 C28.2489956,107.960453 28.0747165,106.376455 28.0747165,106.376455 C28.0064423,106.169304 27.938168,105.972866 27.868097,105.785358 C27.868097,105.744285 27.868097,105.704998 27.868097,105.663925 C27.8465367,104.89782 27.8555202,104.067427 27.961525,103.617407 C28.0801066,103.122743 28.1411941,102.083412 28.1663478,101.172658 C28.1663478,101.103013 28.1663478,101.035153 28.1663478,100.967292 L28.1663478,100.945863 C28.3027522,100.911594 28.4366224,100.868037 28.56701,100.8155 L28.5957571,100.803 C28.8364233,100.702863 29.0619592,100.570046 29.265923,100.40834 L31.4435131,90.7132767 L31.6752863,89.5864421 L32.9886678,83.193308 C32.9886678,83.193308 32.5233247,80.955711 32.9886678,80.5842664 C33.1683369,80.4485462 33.2060675,79.8699497 33.1952873,79.2002778 C33.1773204,78.0287985 32.9886678,76.5555204 32.9886678,76.5555204 C32.9886678,76.5555204 33.6103231,75.5858355 33.9229474,74.9893811 C34.2355717,74.3929267 33.9229474,72.8267874 33.9229474,72.8267874 L34.5428059,69.255204 C34.5428059,69.255204 35.2435156,64.978233 36.9539659,61.4066497 C38.21165,58.772607 37.4103256,51.6597988 36.5946276,47.8739204 C36.5730673,47.7757019 36.551507,47.6792691 36.5299467,47.586408 L36.5299467,47.5721216 C36.9144387,47.3828277 37.3851719,47.1542464 37.8882455,46.9149503 L38.0786948,46.8256607 C38.7165203,46.5274335 39.3920763,46.2202774 39.9975613,45.9649091 L40.0370886,45.948837 C40.4728928,45.7599315 40.9185037,45.5942138 41.3720303,45.4523869 C41.505647,45.4117747 41.642793,45.3836749 41.781676,45.3684547 C42.8596909,45.2916657 39.5951024,39.6199914 39.5951024,39.6199914 Z M15.2840697,51.7633747 L15.6074742,51.7633747 C15.5697437,51.8330206 15.5338098,51.9044522 15.497876,51.9758839 C15.4763157,52.0187429 15.4547554,52.0598161 15.4349918,52.1026751 C15.3164102,52.3473286 15.206812,52.5973394 15.1169774,52.8419928 C15.1529112,52.5776957 15.1978285,52.2901832 15.2481359,51.9830271 C15.2607127,51.9008806 15.2714929,51.829449 15.2840697,51.7633747 Z M14.4108776,56.406433 C14.4116726,56.398118 14.4116726,56.3897469 14.4108776,56.3814319 L14.3839273,56.2974997 C14.3641637,56.2403544 14.3461967,56.1832091 14.3282298,56.1278495 C14.4396247,56.0933242 14.5528163,56.0558226 14.6678045,56.0153446 L14.6911615,56.0064157 C14.6911615,56.0260594 14.6911615,56.0457031 14.6911615,56.0653468 C14.6911615,56.149279 14.6713979,56.2332112 14.6606178,56.3153576 C14.6615899,56.3260506 14.6615899,56.3368089 14.6606178,56.3475019 C14.6606178,56.415362 14.6444475,56.4796505 14.6372608,56.543939 C14.6210905,56.672516 14.6049203,56.7975214 14.5905468,56.9171694 C14.5564097,56.8046646 14.5222725,56.6939455 14.4863387,56.5850122 C14.4504049,56.5332242 14.4306412,56.4725073 14.4108776,56.406433 Z" id="Shape" fill="url(#linearGradient-1)" fill-rule="nonzero" opacity="0.21500651"></path>
                    <path d="M38,11.3353966 L35.9993303,12 L35.2731613,10.872083 C34.7174198,10.0044546 33.9467914,8.81753882 33.3780826,7.95511614 C32.3740428,6.43676634 33.6874454,4.12540414 33.6874454,4.12540414 C33.6874454,4.12540414 33.9171519,1.81404193 34.765584,1.09217506 C35.6140162,0.370308181 35.8455752,4.12540414 35.8455752,4.12540414 C39.2374512,5.57087314 37.4201763,8.96503566 37.4201763,8.96503566 L37.7499163,10.3133303 L38,11.3353966 Z" id="Path" fill="#ECB5AA"></path>
                    <path d="M37,10.6200443 L35.5326087,11 L35,10.3551665 L35,10.2986196 C35,10.2986196 35.8410326,9.87699767 36.8220109,10.0357259 L37,10.6200443 Z" id="Path" fill="#000000" opacity="0.1"></path>
                    <path d="M34,18.9991685 L34.9317946,18.1614306 L34.4650361,10.5553612 C34.4650361,10.5553612 36.8677227,8.78946879 38.6606953,11.55548 C38.6606953,11.55548 38.5883563,13.2457176 38.6606953,13.707027 C38.7330342,14.1683364 38.1594897,14.6296458 38.6606953,15.08911 C39.1619009,15.5485742 38.6606953,17.0856571 38.6606953,17.0856571 C38.6606953,17.0856571 39.2273504,18.1614306 39.5856004,18.4695853 C39.9438505,18.77774 40.3038229,21.3112512 39.5856004,21.8500606 C38.867378,22.38887 37.5067168,23.615953 37.5067168,24.1547624 C37.5067168,24.6935718 35.7843608,26 35.7843608,26 L34.2772993,23.8484529 L34,18.9991685 Z" id="Path" fill="#4189F9"></path>
                    <path d="M13.7135974,63.7423352 C10.1041016,62.1715235 10.9054168,58.3344124 11.5851039,56.4020939 C11.7213662,56.0107597 11.8808544,55.6283518 12.0626734,55.2570163 L14.0910025,54 C14.0910025,54 14.5041807,55.0808505 14.9459772,56.5323832 C15.9672964,59.8923786 17.1460168,65.2360743 13.7135974,63.7423352 Z" id="Path" fill="#ECB5AA"></path>
                    <path d="M18.8359522,96.9914288 C18.5850469,97.4783265 18.4000388,97.9963726 18.285787,98.5319614 C18.1056659,99.3954223 18.0287165,100.277176 18.0565515,101.158743 C18.0712226,101.768728 18.1225713,102.168058 18.1225713,102.168058 L14,105 C14,105 14.0238405,104.668447 14.0641859,104.181191 C14.1705512,102.884286 14.3924512,100.477319 14.601514,100.165915 C14.7463908,99.9479324 14.8472544,99.0796656 14.9114404,98.2755112 C14.9756263,97.4713569 15.0013007,96.7624555 15.0013007,96.7624555 C15.0013007,96.7624555 19.9527876,94.903192 18.8359522,96.9914288 Z" id="Path" fill="#ECB5AA"></path>
                    <path d="M28,99.3538126 C28,99.3538126 28,100.103268 27.9709542,100.974728 C27.9419084,101.846187 27.8874474,102.872767 27.7730795,103.353813 C27.6677884,103.791285 27.6605269,104.6 27.6804959,105.344227 C27.7077264,106.215686 27.7730795,107 27.7730795,107 C27.7730795,107 23.5977425,103.217865 24.0316145,102.918083 C24.1459824,102.837908 24.2585349,102.515468 24.3620107,102.08671 C24.4890862,101.563834 24.6034541,100.866667 24.6887762,100.272331 C24.7904366,99.5751634 24.8539743,99 24.8539743,99 L28,99.3538126 Z" id="Path" fill="#ECB5AA"></path>
                    <path d="M18.8395056,97.7831311 C18.5940349,98.1677322 18.4130342,98.5769377 18.3012571,99 C17.197281,98.9778209 16.0954283,98.9102095 15,98.7974297 C15.0610015,98.1752494 15.0879139,97.6022647 15.0879139,97.6022647 C15.0879139,97.6022647 19.9321499,96.1336298 18.8395056,97.7831311 Z" id="Path" fill="#000000" opacity="0.1"></path>
                    <path d="M28,99.3390862 C28,99.3390862 28,100.068121 27.9736842,100.915837 C26.7960526,101.226101 25.5855263,100.605573 25,100.237664 C25.0921053,99.5594922 25.1496711,99 25.1496711,99 L28,99.3390862 Z" id="Path" fill="#000000" opacity="0.1"></path>
                    <path d="M36.3707116,61.8230555 C34.7254178,65.3643033 34.0518532,69.5624525 34.0518532,69.5624525 L33.4555241,73.1037003 C33.4555241,73.1037003 33.7536886,74.6512255 33.4555241,75.2408433 C33.1573595,75.8304611 32.5574379,76.7883686 32.5574379,76.7883686 C32.5574379,76.7883686 33.006481,80.4022119 32.5574379,80.7687311 C32.1083949,81.1352502 32.5574379,83.3503007 32.5574379,83.3503007 L31.0612264,90.7957742 L28.9668896,100.378391 C26.947992,102.000282 24.2609183,99.9357347 24.2609183,99.9357347 L24.8536551,93.6712673 C24.8536551,93.6712673 25.7517413,82.6933992 25.3781374,82.2436608 C25.0045336,81.7939223 25.5272197,80.4022119 25.5272197,80.4022119 C25.5272197,80.4022119 26.051702,79.074244 25.6780982,78.5572218 C25.3044944,78.0401997 25.7517413,76.9353304 25.7517413,76.9353304 C25.7517413,76.9353304 25.602659,72.4397163 26.051702,71.4074426 C26.5007451,70.3751689 26.051702,63.9885285 26.051702,63.9885285 L25.8720848,62.0001179 L25.769703,60.8987898 L25.7589259,60.7907818 C25.7589259,60.7907818 25.6906714,61.2334377 25.5793087,61.9168986 C25.248813,63.9973816 24.5447135,68.3088508 24.2663068,69.1959334 C24.073585,69.8325051 23.8135067,70.4473398 23.4903604,71.0302997 C23.4903604,71.0302997 23.8783336,73.2418089 23.4903604,73.8314267 C23.1023872,74.4210444 23.4310867,75.0850284 23.4310867,75.0850284 C23.4310867,75.0850284 23.8046905,76.9264772 22.6820829,77.6648274 C21.5594752,78.4031776 22.6820829,78.7696967 22.6820829,78.7696967 C22.6820829,78.7696967 21.859436,80.5403206 21.5612714,81.2769001 C21.2631068,82.0134797 21.5612714,83.047524 21.5612714,83.047524 L20.9757192,89.0162971 C20.9757192,89.0162971 20.4512369,91.5217299 20.5266762,93.2179876 C20.6021154,94.9142453 19.8441307,98.8290947 19.8441307,98.8290947 C19.8441307,98.8290947 14.0856025,98.8290947 13.1982934,98.1651108 C12.3109843,97.5011268 14.6891164,91.0064784 14.6891164,91.0064784 C14.6891164,91.0064784 15.362681,79.653238 15.2118025,79.3575438 C15.060924,79.0618496 15.2118025,76.852111 15.7362848,76.4094551 C16.2607671,75.9667991 15.7362848,75.0832578 15.7362848,75.0832578 C15.7362848,75.0832578 15.5872025,73.3126339 15.7362848,72.8717485 C15.8853671,72.4308632 15.7129345,70.9541629 15.7129345,70.9541629 C15.7129345,70.9541629 15.2118025,67.3420901 15.1381594,65.2775427 C15.0645164,63.2129952 14.6891164,58.5686488 14.6891164,58.5686488 C14.6891164,58.5686488 15.0806819,55.6966968 15.1399556,54.3297752 C15.1615097,53.826918 15.3896235,53.2001172 15.6698264,52.6087288 C15.9937385,51.9405449 16.3659044,51.2961514 16.7834532,50.6805194 C16.7834532,50.6805194 34.5062848,45.5209214 35.2552886,46.0361729 C35.4528676,46.1725109 35.7402552,47.0985472 36.0240504,48.4406801 C36.8089776,52.1820084 37.5813317,59.2096146 36.3707116,61.8230555 Z" id="Path" fill="#4D4F8D"></path>
                    <ellipse id="Oval" fill="#A1616A" cx="25.5" cy="12" rx="5.5" ry="5"></ellipse>
                    <path d="M36,47.5713228 C35.4158136,47.8865755 35.0240028,48.1066927 35.0240028,48.1066927 C35.0240028,48.1066927 26.7942111,52.2236313 24.4468761,51.9904563 C22.6360748,51.8039162 18.0137663,51.9083787 16,51.9624753 C16.3182751,51.2585254 16.6839642,50.5796393 17.0942464,49.9310543 C17.0942464,49.9310543 34.5086481,44.4952776 35.244617,45.0381091 C35.4387575,45.181745 35.7211437,46.1536186 36,47.5713228 Z" id="Path" fill="#000000" opacity="0.1"></path>
                    <path d="M21.9467359,19.313149 C21.9467359,19.313149 17.2368718,20.0554235 16.1340744,20.795918 C15.0312769,21.5364125 12.8221474,22.9408599 12.8221474,25.9847194 C12.8221474,29.0285789 12.3078621,32.1347396 12.0127224,33.024757 C11.7175827,33.9147744 16.655429,41.0972148 16.655429,41.0972148 L14.8881254,51.9910277 C14.8881254,51.9910277 21.9573398,51.7703034 24.3113882,51.9910277 C26.6654366,52.211752 34.9028386,48.2867753 34.9028386,48.2867753 C34.9028386,48.2867753 39.7593889,45.6914846 40.7897269,45.6167231 C41.8200649,45.5419617 38.7290509,39.9099316 38.7290509,39.9099316 C38.7290509,39.9099316 33.9467274,30.7943734 34.7561524,29.3116044 C35.5655775,27.8288355 36.1540896,25.6803335 36.1540896,25.6803335 L35.2704378,18.1205257 C35.2704378,18.1205257 33.9467274,17.6772971 32.8421626,18.490773 C31.7375979,19.3042489 27.9856123,18.8628002 27.9856123,18.8628002 L21.9467359,19.313149 Z" id="Path" fill="#4189F9"></path>
                    <path d="M13.5067987,32.7174324 L11.4685086,33.2430174 L10.8967693,40.2880153 C10.8967693,40.2880153 11.6310236,42.1599616 10.8967693,42.7611444 C10.162515,43.3623271 10,56.1743597 10,56.1743597 C10,56.1743597 12.3652779,57.7493145 15.1358642,56.5487489 C15.1358642,56.5487489 14.7285978,55.1249898 15.9523551,49.9537381 C17.1761123,44.7824864 17.1741542,42.1599616 17.1741542,42.1599616 C17.1741542,42.1599616 17.1741542,35.7161464 17.7458936,34.6667765 C18.317633,33.6174066 17.7458936,30.9948818 17.7458936,30.9948818 C17.7458936,30.9948818 16.6043729,29.5711227 16.6846514,29.0455377 C16.7649298,28.5199528 13.5067987,32.7174324 13.5067987,32.7174324 Z" id="Path" fill="#000000" opacity="0.1"></path>
                    <path d="M15,55.8169525 C14.0200318,56.0891691 12.9530608,56.0568585 12,55.7261048 C12.1217608,55.4453276 12.2642757,55.1709548 12.4267448,54.9045263 L14.2392115,54 C14.2392115,54 14.6052211,54.7754964 15,55.8169525 Z" id="Path" fill="#000000" opacity="0.1"></path>
                    <path d="M13.5060801,32.7174324 L11.4670693,33.2430174 L10.8970864,40.2880153 C10.8970864,40.2880153 11.6316004,42.1599616 10.8970864,42.7611444 C10.1625724,43.3623271 10,56.1743597 10,56.1743597 C10,56.1743597 12.3641557,57.7493145 15.1376806,56.5487489 C15.1376806,56.5487489 14.7302701,55.1249898 15.9525014,49.9537381 C17.1747327,44.7824864 17.1766914,42.1599616 17.1766914,42.1599616 C17.1766914,42.1599616 17.1766914,35.7161464 17.7466743,34.6667765 C18.3166571,33.6174066 17.7466743,30.9948818 17.7466743,30.9948818 C17.7466743,30.9948818 16.6047499,29.5711227 16.6870154,29.0455377 C16.769281,28.5199528 13.5060801,32.7174324 13.5060801,32.7174324 Z" id="Path" fill="#4189F9"></path>
                    <path d="M33.3206102,33 C33.3206102,33 32.2201158,41.4215279 29,43 C29,42.9963879 36.1989828,41.1921618 33.3206102,33 Z" id="Path" fill="#000000" opacity="0.1"></path>
                    <path d="M19,35 C19,35 22.7401483,36.6465575 21.8682119,37.7912415 C20.9962755,38.9359255 19,35 19,35 Z" id="Path" fill="#000000" opacity="0.1"></path>
                    <path d="M18,38 C18,38 20.4185911,40.1374323 19.936422,40.8963036 C19.4542529,41.655175 18,38 18,38 Z" id="Path" fill="#000000" opacity="0.1"></path>
                    <path d="M36,19 C36,19 36.9079253,20.1331053 36.995012,20.8690117 C37.0820987,21.604918 36,19 36,19 Z" id="Path" fill="#000000" opacity="0.1"></path>
                    <path d="M36,17 C36,17 36.4788362,16.5852273 37.7012311,17 C38.923626,17.4147727 36,17 36,17 Z" id="Path" fill="#000000" opacity="0.1"></path>
                    <path d="M32,60.4487249 C30.2934622,60.6869463 28.5532179,60.4676255 26.9627792,59.8138904 L26.0942928,62 L26,60.9875203 C26.1406121,60.1394466 26.4168734,59.2295171 26.9627792,59 C26.9627792,59 28.8701406,60.4991861 32,60.4487249 Z" id="Path" fill="#000000" opacity="0.1"></path>
                    <path d="M17,63 C17,63 21.6861848,64.1828099 23,63.9756511 L17,63 Z" id="Path" fill="#000000" opacity="0.1"></path>
                    <path d="M18,64.8245245 C18,64.8245245 20.0006101,64.7262018 21,65.1843434 L18,64.8245245 Z" id="Path" fill="#000000" opacity="0.1"></path>
                    <path d="M18,65.8156566 C18.6589086,66.0099132 19.3275465,66.1331722 20,66.1843434 L18,65.8156566 Z" id="Path" fill="#000000" opacity="0.1"></path>
                    <path d="M18,75.1843434 C18.0958401,75.1451884 22.4575856,74.5346141 23,74.973885 L18,75.1843434 Z" id="Path" fill="#000000" opacity="0.1"></path>
                    <path d="M18,77 C18,77 20.9247018,76.5852273 20.9986851,77 C21.0726684,77.4147727 18,77 18,77 Z" id="Path" fill="#000000" opacity="0.1"></path>
                    <path d="M18,78 C18,78 21.5525714,76.7578184 21.9717855,77.0423575 C22.3909997,77.3268967 18,78 18,78 Z" id="Path" fill="#000000" opacity="0.1"></path>
                    <path d="M18,102.402248 L14,105 C14,105 14.0231317,104.695865 14.0622776,104.248904 C14.9519573,102.180448 16.1103203,101.08993 16.1103203,101.08993 C17.0124555,100.86981 17.5818505,101.074807 17.9359431,101.4764 C17.9501779,102.035942 18,102.402248 18,102.402248 Z" id="Path" fill="#ECB5AA" opacity="0.1"></path>
                    <path d="M17.901906,105.63997 C17.354934,106.857624 17.079206,108.174837 17.0929847,109.504364 C17.1145602,110.596825 16.8307232,111.674366 16.2719899,112.621138 C16.1914573,112.754199 16.1003385,112.880877 15.9994748,113 C15.9994748,113 13.3053701,112.979794 12.361916,112.215334 C12.2585623,112.13574 12.1733787,112.035947 12.1118231,111.922347 C11.5719673,110.871636 13.1622135,106.848961 13.1622135,106.848961 C13.9970065,103.745659 15.6924642,102.090452 15.6924642,102.090452 C18.7091026,101.327676 17.901906,105.63997 17.901906,105.63997 Z" id="Path" fill="#4D4F8D"></path>
                    <path d="M16,112.567642 C15.9176153,112.719492 15.8244008,112.864056 15.7212175,113 C15.7212175,113 12.9651522,112.976941 12,112.104539 C12.4746361,110.394324 13.9902955,105.221404 14.6978386,106.09957 C15.3647993,106.925854 15.8288487,110.903545 16,112.567642 Z" id="Path" fill="#000000" opacity="0.1"></path>
                    <path d="M15.2478711,106.362097 L15,113 L16.1916007,113 C16.1916007,113 16.3848947,107.176816 16.9170217,106.362097 C17.4491487,105.547378 15.2478711,106.362097 15.2478711,106.362097 Z" id="Path" fill="#4D4F8D"></path>
                    <path d="M28,107 C28,107 23.5735499,103.170783 24.0335158,102.867268 C24.154762,102.786096 24.2740837,102.459642 24.3837827,102.025546 C25.2325064,101.887906 26.693235,102.21436 27.9018483,105.323614 C27.9307164,106.202393 28,107 28,107 Z" id="Path" fill="#000000" opacity="0.1"></path>
                    <path d="M28.2865596,110.928618 C28.2552203,110.940114 28.2228621,110.94875 28.189898,110.954417 C27.7153773,111.036972 25.9666808,110.988815 24.9877622,110.954417 C24.6173174,110.937226 24.3242346,110.641376 24.3181608,110.278492 C24.3181608,110.020506 24.3181608,109.705762 24.297071,109.37038 C24.2513764,108.310915 24.1213226,107.050221 23.7329186,106.766436 C23.0457424,106.250463 22.5026798,104.497875 23.7329186,102.280911 C23.7329186,102.280911 26.0914621,100.519724 27.7927066,105.817046 C27.7927066,105.817046 27.9579101,107.330567 28.6995684,107.867179 C29.4412266,108.40379 28.6169666,110.766947 28.2865596,110.928618 Z" id="Path" fill="#4D4F8D"></path>
                    <path d="M28,110.959799 C27.5124153,111.032607 25.7155756,110.990136 24.7097065,110.959799 C24.3290631,110.944638 24.0279115,110.68372 24.0216704,110.363684 C24.0216704,110.136159 24.0216704,109.858578 24,109.562796 C24.3051919,108.429722 24.7440181,107.266311 25.3092551,107.000865 C25.3092551,107.000865 27.0194131,106.838564 28,110.959799 Z" id="Path" fill="#000000" opacity="0.1"></path>
                    <polygon id="Path" fill="#4D4F8D" points="24 106.549547 24.4395797 113 25 113 25 106"></polygon>
                    <path d="M25.5266358,4.00076742 C23.850773,4.11936224 22.2285264,4.61477625 20.7935293,5.4461995 C20.424044,5.65871138 20.0545587,5.91513068 19.9012223,6.29624703 C19.7682076,6.62643079 19.8236304,6.99876566 19.8291727,7.35002498 C19.8790532,10.376124 16.3319945,12.6645784 16.44284,15.6871648 C16.4871783,16.8867154 17.1208455,18.00372 17.2372334,19.1997579 C17.4312132,21.1931545 16.1897426,23.0302408 15,24.6829158 C16.2256301,24.7531023 17.4327379,24.3726771 18.3715532,23.6203564 C19.6298251,27.5995994 19.7939283,31.8190809 18.8481893,35.8757939 L20.549669,35.8757939 C20.7178116,35.8653833 20.8864967,35.8856523 21.0466267,35.9355079 C21.1963304,36.0023013 21.3302039,36.0973055 21.4401286,36.2147591 C23.0307627,37.7199053 24.0967278,39.945133 23.4889245,42 L27.1098803,40.709122 C27.9763233,40.4000138 28.8556983,40.0856367 29.6094482,39.5745544 C30.3631982,39.0634721 30.9950181,38.3275839 31.1538967,37.4669986 C31.2518103,36.9401096 31.2204041,36.3113554 31.6767184,36.0057598 C31.9010535,35.8906781 32.1410185,35.8055733 32.389825,35.7528531 C33.3837405,35.420913 33.8234279,34.3284966 34.0266449,33.3449705 C34.2740956,32.1382955 34.3517516,30.905707 34.2575732,29.6795796 C34.0968471,27.6247126 33.4576375,25.5382323 33.984154,23.5325416 C34.2815897,22.4067555 34.9429684,21.3564901 34.9965437,20.1955781 C35.0833728,18.2777022 33.507518,16.6285398 33.2728949,14.722958 C33.1084739,13.3934415 33.6128213,12.0516309 33.4484004,10.7238707 C33.2631299,9.33302118 32.3756245,8.1156163 31.0707626,7.46242796 C30.6255328,7.24464718 30.1470493,7.09711827 29.7073618,6.85826194 C28.7042093,6.30502852 28.0631523,5.30745207 27.1523711,4.6224964 C26.2415899,3.93754074 24.7248528,3.67936515 24.0394575,4.5715638 L25.5266358,4.00076742 Z" id="Path" fill="#000000" opacity="0.1"></path>
                    <path d="M25.5266358,3 C23.8499964,3.12123814 22.2276976,3.61957292 20.7935293,4.45390694 C20.424044,4.66637401 20.0545587,4.92273924 19.9012223,5.30553117 C19.7682076,5.6356453 19.8236304,6.00790167 19.8291727,6.35908692 C19.8790532,9.38279192 16.3319945,11.6707638 16.44284,14.6927129 C16.4871783,15.8920105 17.1208455,17.0087796 17.2372334,18.2045654 C17.4312132,20.1992976 16.1897426,22.0342406 15,23.6865672 C16.2256301,23.7567389 17.4327379,23.3763939 18.3715532,22.6242318 C19.6298251,26.6026358 19.7939283,30.8212276 18.8481893,34.8770852 L20.549669,34.8770852 C20.7178116,34.8666768 20.8864967,34.8869416 21.0466267,34.9367867 C21.1963304,35.0035659 21.3302039,35.09855 21.4401286,35.2159789 C23.0307627,36.7208077 24.0967278,38.9455663 23.4889245,41 L27.1098803,39.7093942 C27.9763233,39.4003512 28.8556983,39.0860404 29.6094482,38.5750658 C30.3631982,38.0640913 30.9950181,37.3283582 31.1538967,36.4679543 C31.2518103,35.9411765 31.2204041,35.3125549 31.6767184,35.0070237 C31.9008129,34.891864 32.1408811,34.8073317 32.389825,34.7559263 C33.3837405,34.4223003 33.8234279,33.3301141 34.0266449,32.3467954 C34.2740956,31.1403748 34.3517516,29.9080462 34.2575732,28.6821773 C34.0968471,26.6277436 33.4576375,24.5417032 33.984154,22.5364355 C34.2815897,21.4108867 34.9429684,20.3608428 34.9965437,19.2001756 C35.0833728,17.2827041 33.507518,15.6338894 33.2728949,13.7287094 C33.1084739,12.3994732 33.6128213,11.0579456 33.4484004,9.73046532 C33.2631299,8.33990907 32.3756245,7.12276089 31.0707626,6.46971027 C30.6255328,6.25197542 30.1470493,6.10623354 29.7073618,5.86567164 C28.7042093,5.31255487 28.0631523,4.31518876 27.1523711,3.63037752 C26.2415899,2.94556629 24.7248528,2.68744513 24.0394575,3.57945566 L25.5266358,3 Z" id="Path" fill="#1F1D52"></path>
                    <path d="M18.8330275,7.03564356 C18.8257001,7.10492075 18.8220256,7.17451661 18.8220183,7.24415842 C18.8275229,7.17465347 18.8311927,7.10158416 18.8330275,7.03564356 Z" id="Path" fill="#000000"></path>
                    <path d="M32.1761468,14.1714851 C32.2422018,13.2269307 32.4587156,12.2788119 32.3779817,11.3378218 C32.3100917,12.2823762 32.093578,13.2287129 32.1761468,14.1714851 Z" id="Path" fill="#000000"></path>
                    <path d="M32.8954128,23.2570297 C32.7235421,23.9822271 32.6617266,24.7279309 32.7119266,25.470495 C32.731127,25.0375071 32.7925642,24.6072639 32.8954128,24.1855446 C33.1908257,23.0431683 33.8477064,21.9774257 33.9009174,20.7994059 C33.909587,20.5898664 33.8997652,20.3799907 33.8715596,20.1720792 C33.7357798,21.2324752 33.1651376,22.2108911 32.8954128,23.2570297 Z" id="Path" fill="#000000"></path>
                    <path d="M13,41 C13,41 14.6044751,40.5852273 14.9624629,41 C15.3204506,41.4147727 13,41 13,41 Z" id="Path" fill="#000000" opacity="0.1"></path>
                    <path d="M14,42 C14,42 15.6024522,41.5852273 15.9621424,42 C16.3218326,42.4147727 14,42 14,42 Z" id="Path" fill="#000000" opacity="0.1"></path>
                </g>
                <g id="Leaf" transform="translate(54.000000, 127.000000)">
                    <path d="M19.8556102,7.00950123 C19.8556102,7.00950123 12.1687258,6.56915035 13.0741346,11.684128 C13.0741346,11.684128 12.8923256,12.5890058 13.7577365,13 C13.7577365,13 13.7722812,12.6200894 14.5467875,12.7496044 C14.8224688,12.7929108 15.1025126,12.8056599 15.3812908,12.7875955 C15.7585226,12.7624801 16.1170236,12.6219125 16.4030574,12.3869625 C16.4030574,12.3869625 18.5629483,11.5390712 19.4029058,8.1854971 C19.4029058,8.1854971 20.0246926,7.45330584 19.9992393,7.26507742 L18.7029412,7.78313728 C18.7029412,7.78313728 19.1465551,8.67074649 18.7974819,9.40984522 C18.7974819,9.40984522 18.7556658,7.81422087 18.5065875,7.85566566 C18.4556809,7.86429999 17.8320761,8.16304784 17.8320761,8.16304784 C17.8320761,8.16304784 18.5956739,9.7172274 18.0138851,10.8379635 C18.0138851,10.8379635 18.2320559,8.92977642 17.588452,8.27529414 L16.679407,8.78126593 C16.679407,8.78126593 17.5702711,10.3820709 16.9666653,11.6858548 C16.9666653,11.6858548 17.1212029,9.68441694 16.4866895,8.90560029 L15.6594586,9.51863779 C15.6594586,9.51863779 16.4975981,11.0952666 15.9867148,12.1762848 C15.9867148,12.1762848 15.9194454,9.84674236 15.4812858,9.67060201 C15.4812858,9.67060201 14.7540498,10.276732 14.6467825,10.5340351 C14.6467825,10.5340351 15.2194808,11.6772205 14.8649533,12.2816237 C14.8649533,12.2816237 14.6467825,10.7274441 14.4667916,10.7274441 C14.4667916,10.7274441 13.7395556,11.7549295 13.6704682,12.4543103 C13.6704682,12.4543103 13.7013757,11.4061025 14.2922549,10.6238321 C13.8763139,10.6977163 13.4924889,10.8863058 13.1886743,11.1660681 C13.1886743,11.1660681 13.2995778,10.4390575 14.4704277,10.3751634 C14.4704277,10.3751634 15.0667612,9.59634676 15.2249351,9.54799451 C15.2249351,9.54799451 14.0613575,9.4564706 13.3559386,9.75349159 C13.3559386,9.75349159 13.9777254,9.06274511 15.4394697,9.37876162 L16.2557921,8.74500174 C16.2557921,8.74500174 14.7231422,8.54641213 14.0740841,8.76572413 C14.0740841,8.76572413 14.8213191,8.1595941 16.475781,8.60167184 L17.364827,8.09570005 C17.364827,8.09570005 16.0594384,7.82976266 15.2812959,7.92301344 C15.2812959,7.92301344 16.1012544,7.50338496 17.6266319,7.95927763 L18.2611453,7.68815964 C18.2611453,7.68815964 17.30483,7.51547302 17.0248441,7.4809357 C16.7448583,7.44639837 16.7303136,7.37905059 16.7303136,7.37905059 C17.3360337,7.28299691 17.9579418,7.34876349 18.5265865,7.56900587 C18.5265865,7.56900587 19.8792454,7.09066394 19.8556102,7.00950123 Z" id="Path" fill="#286EF1"></path>
                    <ellipse id="Oval" fill="#6C63FF" opacity="0.1" cx="14.5" cy="13.5" rx="5.5" ry="1"></ellipse>
                    <path d="M5.91294769,7.00477315 C5.91294769,7.00477315 1.51997774,6.78415286 2.04330134,9.34273539 C1.98850089,9.60905438 2.1462217,9.87441801 2.43395135,10 C2.43395135,10 2.43395135,9.8115535 2.88356741,9.87590109 C3.04125166,9.89743969 3.20141973,9.90360973 3.36082379,9.89428611 C3.57678191,9.88261309 3.78208832,9.81207146 3.94495612,9.69358293 C3.94495612,9.69358293 5.17955757,9.27072738 5.65865664,7.59309392 C5.65865664,7.59309392 6.01429557,7.22692552 5.99955406,7.13346832 L5.26247856,7.396987 C5.26247856,7.396987 5.51676961,7.84129175 5.31775923,8.21052432 C5.31775923,8.21052432 5.29380427,7.41383994 5.15007455,7.43222496 C5.12243422,7.43222496 4.76495261,7.5854335 4.76495261,7.5854335 C4.76495261,7.5854335 5.20166984,8.36066868 4.87182855,8.922944 C4.87182855,8.922944 4.99713139,7.96998692 4.62859364,7.64212065 L4.10711273,7.89491474 C4.10711273,7.89491474 4.61753751,8.69466329 4.27111202,9.34733164 C4.27111202,9.34733164 4.35956108,8.34687991 3.99839409,7.95773023 L3.52482309,8.2641473 C3.52482309,8.2641473 4.00392216,9.05163917 3.70909196,9.59399738 C3.70909196,9.59399738 3.67223819,8.42808044 3.42163252,8.33921949 C3.24180764,8.46524129 3.0814961,8.60933799 2.94437613,8.76820338 C2.94437613,8.76820338 3.27237473,9.33967122 3.06783628,9.64149203 C3.06783628,9.64149203 2.94437613,8.86625684 2.84118556,8.86166059 C2.84118556,8.86166059 2.43026598,9.37644126 2.38604145,9.72882089 C2.40604242,9.40184543 2.52865377,9.08492111 2.74168037,8.80956969 C2.50429437,8.84691201 2.28523182,8.9411761 2.11148083,9.08074879 C2.11148083,9.08074879 2.17413224,8.71764457 2.84855632,8.68547077 C2.84855632,8.68547077 3.18945374,8.2963211 3.28158817,8.27180773 C3.28158817,8.27180773 2.61637754,8.22584517 2.21282871,8.37445745 C2.21282871,8.37445745 2.56662494,8.03127033 3.40320563,8.18754304 L3.86940588,7.87040137 C3.86940588,7.87040137 2.99412873,7.77081582 2.62190561,7.88112597 C2.62190561,7.88112597 3.04940939,7.5747089 3.99470871,7.79839336 L4.50329081,7.54559928 C4.11260419,7.47446408 3.71249522,7.44562611 3.31291388,7.4598025 C3.31291388,7.4598025 3.78095682,7.2499068 4.65254859,7.47818752 L5.02108634,7.34183193 C5.02108634,7.34183193 4.46827972,7.25297098 4.31349387,7.23918221 C4.15870801,7.22539344 4.14580919,7.18862339 4.14580919,7.18862339 C4.49191315,7.1406394 4.84724504,7.17352469 5.17218682,7.28361268 C5.17218682,7.28361268 5.92584651,7.04460737 5.91294769,7.00477315 Z" id="Path" fill="#286EF1"></path>
                    <ellipse id="Oval" fill="#6C63FF" opacity="0.1" cx="3" cy="10.5" rx="3" ry="1"></ellipse>
                    <path d="M14.8963584,0.00637260503 C14.8963584,0.00637260503 9.40447199,-0.287948092 10.0532703,3.1238039 C9.98414741,3.47847809 10.180618,3.83225371 10.5398689,4 C10.5398689,4 10.5398689,3.74627526 11.1027969,3.83085017 C11.3000344,3.86039592 11.5005519,3.86891397 11.7000729,3.85622265 C11.9695191,3.84031598 12.2256183,3.74642091 12.4290168,3.58896592 C12.4290168,3.58896592 13.972775,3.0240055 14.5738675,0.787844802 C14.5738675,0.787844802 15.0184852,0.300693302 14.9994029,0.173830933 L14.0739112,0.525662571 C14.0739112,0.525662571 14.3906775,1.11768696 14.1406993,1.60991296 C14.1406993,1.60991296 14.1101676,0.547652049 13.9327022,0.571333024 C13.8964458,0.571333024 13.4518282,0.777695812 13.4518282,0.777695812 C13.4518282,0.777695812 13.9956738,1.80950975 13.5854043,2.56053498 C13.5854043,2.56053498 13.7418792,1.28852829 13.2819957,0.852121736 L12.629381,1.19042139 C12.629381,1.19042139 13.2648216,2.25775679 12.8335616,3.1271869 C12.8335616,3.1271869 12.944239,1.79259477 12.4919884,1.26653881 L11.9004371,1.67588139 C11.9004371,1.67588139 12.4996213,2.72630181 12.1332411,3.44857157 C12.1332411,3.44857157 12.0855354,1.89408466 11.7725856,1.77737128 C11.7725856,1.77737128 11.2554553,2.18163937 11.1772178,2.3474062 C11.1772178,2.3474062 11.5855791,3.11027191 11.3317845,3.5128485 C11.3317845,3.5128485 11.1753096,2.47765156 11.0474582,2.47257707 C11.0474582,2.47257707 10.5341443,3.15932536 10.4749891,3.62787038 C10.5007083,3.19341136 10.6539701,2.7724365 10.9196068,2.40660864 C10.6224157,2.45684954 10.3483929,2.58329871 10.1315077,2.77028076 C10.1315077,2.77028076 10.2116534,2.28482076 11.0474582,2.24253331 C11.0474582,2.24253331 11.4729935,1.72155184 11.5874873,1.69110487 C11.5874873,1.69110487 10.755499,1.62851944 10.2517262,1.82642473 C10.2517262,1.82642473 10.6944356,1.3697202 11.7382375,1.57777449 L12.3221559,1.15489992 C12.3221559,1.15489992 11.22874,1.02296306 10.7631319,1.16843191 C10.7631319,1.16843191 11.2974363,0.764163826 12.480539,1.06017602 L13.1159797,0.72187637 C13.1159797,0.72187637 12.1828551,0.552726543 11.6256519,0.608545986 C11.6256519,0.608545986 12.2133868,0.327757275 13.301078,0.632226962 L13.7552368,0.451236648 C13.7552368,0.451236648 13.0720904,0.332831769 12.8717262,0.314225289 C12.6713621,0.295618808 12.6618209,0.246565358 12.6618209,0.246565358 C13.0946995,0.181519719 13.5394676,0.224869911 13.9460598,0.371736229 C13.9460598,0.371736229 14.9135325,0.0588090511 14.8963584,0.00637260503 Z" id="Path" fill="#4189F9"></path>
                    <ellipse id="Oval" fill="#6C63FF" opacity="0.1" cx="11" cy="4.5" rx="4" ry="1"></ellipse>
                </g>
                <g id="Stone" transform="translate(97.000000, 128.000000)">
                    <ellipse id="Oval" fill="#6C63FF" opacity="0.1" cx="5.5" cy="6.5" rx="5.5" ry="1"></ellipse>
                    <path d="M2,1.71230158 C2,1.71230158 4.95618623,1.6155131 5.84806432,0.934271064 C6.73994242,0.253029033 10.3940449,-0.554782556 10.6157156,0.53036527 C10.8373862,1.6155131 15.057788,5.96913362 11.7206053,5.99891469 C8.38342264,6.02869576 3.96559541,5.44051958 3.07718092,4.85792735 C2.18876643,4.27533512 2,1.71230158 2,1.71230158 Z" id="Path" fill="#4D4F8D"></path>
                    <path d="M11.7818283,5.64660043 C8.44443755,5.67438406 4.02806675,5.12565751 3.13786495,4.5821404 C2.46068809,4.16885902 2.19224202,2.68590818 2.09871888,2 L2,2 C2,2 2.1887782,4.391128 3.07724809,4.93464511 C3.96571798,5.47816222 8.38382069,6.02515229 11.7212115,5.99910514 C12.6841535,5.99042276 13.0166803,5.65180986 12.9993612,5.13086694 C12.8660041,5.44864212 12.4988391,5.641391 11.7818283,5.64660043 Z" id="Path" fill="#000000" opacity="0.2"></path>
                </g>
            </g>
        </g>
    </g>
</svg>