<?xml version="1.0" encoding="UTF-8"?>
<svg width="334px" height="154px" viewBox="0 0 334 154" version="1.1" xmlns="http://www.w3.org/2000/svg" xmlns:xlink="http://www.w3.org/1999/xlink">
    <!-- Generator: Sketch 52.6 (67491) - http://www.bohemiancoding.com/sketch -->
    <title>Poll</title>
    <desc>Created with Sketch.</desc>
    <defs>
        <rect id="path-1" x="1.42108547e-14" y="0" width="154" height="334" rx="8"></rect>
        <linearGradient x1="50%" y1="100%" x2="50%" y2="-11.6075544%" id="linearGradient-3">
            <stop stop-color="#286EF1" offset="0%"></stop>
            <stop stop-color="#286EF1" stop-opacity="0" offset="100%"></stop>
        </linearGradient>
    </defs>
    <g id="Design-1" stroke="none" stroke-width="1" fill="none" fill-rule="evenodd">
        <g id="6-My-Feed" transform="translate(-20.000000, -115.000000)">
            <g id="Poll" transform="translate(20.000000, 115.000000)">
                <g id="Pool" transform="translate(167.000000, 77.000000) rotate(-270.000000) translate(-167.000000, -77.000000) translate(90.000000, -90.000000)">
                    <mask id="mask-2" fill="white">
                        <use xlink:href="#path-1"></use>
                    </mask>
                    <use id="Mask" fill="#FFFFFF" xlink:href="#path-1"></use>
                    <g id="Illustration" mask="url(#mask-2)">
                        <g transform="translate(93.500000, 162.500000) rotate(-90.000000) translate(-93.500000, -162.500000) translate(-78.000000, 84.000000)">
                            <g id="Woman" transform="translate(226.000000, 4.000000)">
                                <path d="M66,99 C94.164056,98.9999998 116.996512,121.925228 117,150.20722 L117,151 L15,151 L15,150.20722 C15.0034878,121.925228 37.835944,98.9999998 66,99 Z" id="Path" fill="#EBECEE"></path>
                                <path d="M34.2384412,84 C34.2384412,84 20.618169,85.9574679 22.1149022,95.2720964 L26.4172141,112.600605 C26.4172141,112.600605 32.7862916,129.554751 30.3437503,136.077529 C30.3437503,136.077529 27.9139473,146.512071 25.4809597,146.137709 C23.0479721,145.763347 30.7163414,148 30.7163414,148 L39.314596,140.173301 L41.9291023,134.396074 C41.9291023,134.396074 42.6774689,132.717791 39.3114115,129.925941 C39.3114115,129.925941 37.4420872,124.894265 38.002566,123.406335 C38.5630449,121.918406 40.2317432,103.692064 35.6619301,97.4326079 L34.2384412,84 Z" id="Path" fill="#BE7C5E"></path>
                                <path d="M34.2384412,84 C34.2384412,84 20.618169,85.9574679 22.1149022,95.2720964 L26.4172141,112.600605 C26.4172141,112.600605 32.7862916,129.554751 30.3437503,136.077529 C30.3437503,136.077529 27.9139473,146.512071 25.4809597,146.137709 C23.0479721,145.763347 30.7163414,148 30.7163414,148 L39.314596,140.173301 L41.9291023,134.396074 C41.9291023,134.396074 42.6774689,132.717791 39.3114115,129.925941 C39.3114115,129.925941 37.4420872,124.894265 38.002566,123.406335 C38.5630449,121.918406 40.2317432,103.692064 35.6619301,97.4326079 L34.2384412,84 Z" id="Path" fill="#FFBDA3" opacity="0.866652716"></path>
                                <path d="M24.9230947,152.987117 L45,133.923087 L39.6230524,128 L29.632296,135.559263 C26.859559,138.190673 21.9532136,149.792064 24.9230947,153 L24.9230947,152.987117 Z" id="Path" fill="#1D1D55"></path>
                                <path d="M60,83.4710337 C60,83.4710337 40.0591217,81.6788325 33.0411399,85.0861521 C33.0411399,85.0861521 32.4877507,87.9561166 35.4402081,91.3603831 C38.3926655,94.7646495 60,83.4710337 60,83.4710337 Z" id="Path" fill="#333333"></path>
                                <path d="M60,83.4710337 C60,83.4710337 40.0591217,81.6788325 33.0411399,85.0861521 C33.0411399,85.0861521 32.4877507,87.9561166 35.4402081,91.3603831 C38.3926655,94.7646495 60,83.4710337 60,83.4710337 Z" id="Path" fill="#000000" opacity="0.3"></path>
                                <rect id="Rectangle" fill="#428BFA" x="26" y="83" width="19" height="3"></rect>
                                <path d="M37.5698884,89.0701664 C37.5698884,89.0701664 26.8386743,88.3295188 22.3962164,91.6608572 C17.9537584,94.9921956 17.5851289,102.026772 17.5851289,102.026772 L4.63268594,139.969992 C4.63268594,139.969992 0.615569711,145.996027 0.0074885872,149.595259 C-0.178401497,150.704655 3.15816798,152 3.15816798,152 L14.4439016,142.544924 L16.6493772,139.393232 C16.6493772,139.393232 14.4439016,135.875944 15.9089675,134.952498 C17.3740334,134.029052 32.5603081,103.671955 32.5603081,103.671955 L52,102.392368 L37.5698884,89.0701664 Z" id="Path" fill="#FFBDA3"></path>
                                <path d="M80.398841,78.2966698 C80.398841,78.2966698 93.9974739,99.735783 74.4385352,102.508516 L59.1618811,102.508516 C59.1618811,102.508516 53.5727066,114.707284 50.5973118,113.967678 C47.621917,113.228073 30.6640697,95.1156101 33.2715052,88.6448501 L57.3030524,83.0993837 C57.3030524,83.0993837 61.7724887,81.0662558 62.1467921,77 L80.398841,78.2966698 Z" id="Path" fill="#000000" opacity="0.1"></path>
                                <path d="M80.4001367,78.2936326 C80.4001367,78.2936326 93.9967848,99.7471597 74.4375293,102.507539 L59.1662766,102.507539 C59.1662766,102.507539 53.5779179,114.707344 50.6029574,113.967675 C47.6279968,113.228007 30.6694531,95.1140036 33.2701649,88.6458407 L57.2982044,83.0999025 C57.2982044,83.0999025 61.7669884,81.0666017 62.1412371,77 L80.4001367,78.2936326 Z" id="Path" fill="#504C84"></path>
                                <path d="M59.8627786,57 L55.2211295,64.4251052 L44.078642,80.9263913 C44.078642,80.9263913 34.9787331,81.2957524 36.094879,88.5282847 C37.2110249,95.760817 47.9772479,84.818889 47.9772479,84.818889 L66,64.4251052 L59.8627786,57 Z" id="Path" fill="#BE7C5E"></path>
                                <path d="M59.8627786,57 L55.2211295,64.4251052 L44.078642,80.9263913 C44.078642,80.9263913 34.9787331,81.2957524 36.094879,88.5282847 C37.2110249,95.760817 47.9772479,84.818889 47.9772479,84.818889 L66,64.4251052 L59.8627786,57 Z" id="Path" fill="#FFBDA3" opacity="0.866652716"></path>
                                <circle id="Oval" fill="#FFBDA3" cx="70" cy="17" r="11"></circle>
                                <path d="M64,22.9705417 C64,22.9705417 73.835703,31.927943 68.2685624,41.08235 C62.7014218,50.236757 82,34.9243352 82,34.9243352 C82,34.9243352 75.3206951,23.7172566 76.7962085,17 L64,22.9705417 Z" id="Path" fill="#FFBDA3"></path>
                                <path d="M71.7130373,32.7125588 C71.7130373,32.7125588 69.1145866,36.7671878 65.586763,37.8718545 L58.5311157,45.9716976 C58.5311157,45.9716976 52.5913482,51.1309932 56.1191718,57.7652699 C59.6469954,64.3995467 61.6890869,80.8032196 61.6890869,80.8032196 C61.6890869,80.8032196 79.138537,80.8032196 83.2227199,83 C83.2227199,83 79.6948963,66.9666415 84.5219453,55.7222642 C89.3489943,44.4778869 80.8076149,29 80.8076149,29 L71.7130373,32.7125588 Z" id="Path" fill="#000000" opacity="0.1"></path>
                                <path d="M71.7130373,32.7002209 C71.7130373,32.7002209 69.1145866,36.7550854 65.586763,37.8598163 L58.5311157,45.9695455 C58.5311157,45.9695455 52.5913482,51.129141 56.1191718,57.7638033 C59.6469954,64.3984657 61.6890869,80.8030919 61.6890869,80.8030919 C61.6890869,80.8030919 79.138537,80.8030919 83.2227199,83 C83.2227199,83 79.6948963,66.9657096 84.5219453,55.7206788 C89.3489943,44.475648 80.8076149,29 80.8076149,29 L71.7130373,32.7002209 Z" id="Path" fill="#428BFA"></path>
                                <path d="M79,50.3569204 C79,50.3569204 66.0951373,76.8108481 63.289317,78.4673679 C60.4834966,80.1238876 39.1611729,82.3504265 39.1611729,82.3504265 C39.1611729,82.3504265 26.0684062,84.753325 29.6067336,80.3159935 C33.145061,75.8786621 40.642111,76.9872076 40.642111,76.9872076 L58.4101833,73.6584217 L68.6971296,45 L79,50.3569204 Z" id="Path" fill="#FFBDA3"></path>
                                <path d="M73.2500415,38.5588159 C73.2500415,38.5588159 63.2674913,44.5540296 65.2640013,50.0047863 C65.2640013,50.0047863 76.6991208,48.3683219 80.6921409,56 C80.6921409,56 87.0432681,48.9158724 82.1447102,41.2841942 C82.1447102,41.2841942 79.4219155,36.3778945 73.2500415,38.5588159 Z" id="Path" fill="#000000" opacity="0.1"></path>
                                <path d="M73.2500415,37.5588159 C73.2500415,37.5588159 63.2674913,43.5540296 65.2640013,49.0047863 C65.2640013,49.0047863 76.6991208,47.3683219 80.6921409,55 C80.6921409,55 87.0432681,47.9158724 82.1447102,40.2841942 C82.1447102,40.2841942 79.4219155,35.3778945 73.2500415,37.5588159 Z" id="Path" fill="#428BFA"></path>
                                <path d="M65.118757,15.5845907 C65.4541731,15.5690227 65.7814942,15.6911137 66.0256885,15.9228769 C66.2698828,16.15464 66.4100088,16.4762 66.4139455,16.8138456 L67.8073025,22.1830781 C68.469147,24.7307566 69.137325,27.3230195 69.137325,29.9598667 C69.137325,37.7621322 63.2028912,44.491188 56.3311082,48.1120761 L63.3612272,49.9686968 C64.0478352,50.2000698 64.7735211,50.291022 65.4955967,50.236203 C66.0915296,50.1213107 66.658151,49.8862328 67.1612915,49.5451453 C70.1506755,47.7044475 72.2945451,44.7045561 73.7100691,41.4785582 C75.125593,38.2525603 75.8792725,34.7909021 76.6266185,31.3387977 C78.9456283,35.4772172 80.371035,40.060797 80.809856,44.7905402 C81.2816973,49.927297 80.6135193,55.3188217 82.586386,60.0766113 C83.5649026,62.4363985 85.4364343,64.6847248 87.9698105,65 C89.0956099,58.2168096 89.7653069,51.3649974 89.9743445,44.491188 C90.0218453,42.9689501 90.0408456,41.4276046 89.6830062,39.9467665 C89.3663342,38.6410812 88.7646573,37.4277493 88.3308166,36.1570947 C86.6461214,31.2050446 87.6341382,25.7912278 88.4669856,20.6258096 C89.299833,15.4603914 89.8951765,9.89371387 87.5549702,5.21872381 C86.2059473,2.52455379 83.6820713,0.218904736 80.6895206,0.0150904552 C77.8394723,-0.175985433 75.2205947,1.50229778 72.408547,1.95132612 C69.5964994,2.40035446 66.8002854,1.63286631 63.997738,1.83349599 C61.3197356,2.04437036 58.7844629,3.13289466 56.7807824,4.93210998 C55.2417564,6.31422557 54.0225691,8.21543065 54.000402,10.288604 C53.9370676,15.8552816 61.3725269,15.15467 65.118757,15.5845907 Z" id="Path" fill="#333333" opacity="0.1"></path>
                                <path d="M65.1113009,15.5814061 C65.4467748,15.5658381 65.7741524,15.6879291 66.0183887,15.9196923 C66.2626251,16.1514554 66.4027753,16.4730154 66.4067127,16.810661 L67.8003098,22.1798935 C68.4622684,24.727572 69.1305616,27.3198349 69.1305616,29.9566821 C69.1305616,37.7589476 63.1951049,44.4880034 56.3221374,48.1088915 L63.3534682,49.9655122 C64.0401945,50.1968852 64.7660055,50.2878374 65.4882055,50.2330184 C66.0842412,50.1181261 66.6509603,49.8830482 67.1541875,49.5419607 C70.1440868,47.7012629 72.2883259,44.7013715 73.7040939,41.4753736 C75.1198619,38.2493757 75.8736712,34.7877175 76.621146,31.3356131 C78.9420855,35.474744 80.368835,40.0594667 80.8082718,44.7905402 C81.2801945,49.927297 80.6119013,55.3188217 82.5851081,60.0766113 C83.5637934,62.4363985 85.4356477,64.6847248 87.9694606,65 C89.095454,58.2168096 89.7652664,51.3649974 89.97434,44.491188 C90.021849,42.9689501 90.0408526,41.4276046 89.6829516,39.9467665 C89.3662249,38.6410812 88.7644444,37.4277493 88.3305289,36.1570947 C86.6455433,31.2050446 87.6337304,25.7912278 88.4667214,20.6258096 C89.2997124,15.4603914 89.8951584,9.89371387 87.5545487,5.21872381 C86.2052933,2.52455379 83.6809822,0.218904736 80.6879157,0.0150904552 C77.8373762,-0.175985433 75.2180471,1.50229778 72.4055148,1.95132612 C69.5929825,2.40035446 66.7962865,1.63286631 63.9932559,1.83349599 C61.3200533,2.03860046 58.7871167,3.11794144 56.7813909,4.90663319 C55.2420996,6.28874878 54.0227021,8.18995387 54.0005313,10.2631273 C53.9276842,15.852097 61.364425,15.1514854 65.1113009,15.5814061 Z" id="Path" fill="#1F1B4F"></path>
                            </g>
                            <g id="Man">
                                <path d="M51,103.006341 C79.164056,103.006341 101.996512,125.928773 102,154.207317 L102,155 L0,155 L0,154.207317 C-3.44940413e-15,125.926297 22.8334778,103 51,103 L51,103.006341 Z" id="Path" fill="#EBECEE"></path>
                                <path d="M47.7447071,26 C47.7447071,26 46.5261713,36.3892313 42.625584,38.5157723 C38.7249968,40.6423133 54.3400719,43 54.3400719,43 C54.3400719,43 58.7274372,29.541153 61.6576499,28.3607687 C64.5878627,27.1803843 47.7447071,26 47.7447071,26 Z" id="Path" fill="#FFBDA3"></path>
                                <path d="M58,53.2979351 C58,53.2979351 62.3387971,42.4890135 66.6942819,45.5439754 C71.0497667,48.5989374 63.1131055,58 63.1131055,58 L58,53.2979351 Z" id="Path" fill="#FFBDA3"></path>
                                <path d="M35.0167805,98.0541895 C35.0167805,98.0541895 33.3129583,107.455891 64.2424175,108.179583 L84.4562337,108.903275 C84.4562337,108.903275 86.6495869,110.350658 83.7251159,113.723692 C81.8178522,115.926232 81.5667292,121.055005 81.6303047,124.314765 C81.672274,126.524385 81.4406174,128.730773 80.940511,130.884629 C80.1871418,134.128656 79.1540407,138.436196 78.855236,139.037175 C78.3688838,140 90.298818,140 90.298818,140 L96.6309334,115.167929 C96.6309334,115.167929 103.449401,101.184943 93.951228,97.0882182 C84.4530549,92.9914928 57.6623578,86 57.6623578,86 L35.0167805,98.0541895 Z" id="Path" fill="#428BFB"></path>
                                <path d="M54,55.2148513 C54,55.2148513 57.0670311,54.4765675 57.8346232,53 C57.8346232,53 64.4826384,53.2471646 63.9720228,57.9176118 L57.3240076,68 L54,55.2148513 Z" id="Path" fill="#3AD29F"></path>
                                <path d="M54,55.2148513 C54,55.2148513 57.0670311,54.4765675 57.8346232,53 C57.8346232,53 64.4826384,53.2471646 63.9720228,57.9176118 L57.3240076,68 L54,55.2148513 Z" id="Path" fill="#FCB966"></path>
                                <path d="M49.586633,35.5519529 C49.586633,35.5519529 45.9723557,33.1270265 43.8019019,34.3394897 C41.6314482,35.5519529 30.7886163,41.3736755 30.0651318,56.6418476 C29.3416472,71.9100196 34.8841682,102 34.8841682,102 C34.8841682,102 43.0784174,93.753351 49.586633,93.9971099 C56.0948486,94.2408688 65,83.0817756 65,83.0817756 C65,83.0817756 55.2486862,60.6971095 55.8243282,53.7040778 C55.9364407,52.4716247 55.9553686,51.2323815 55.8809488,49.9970429 C55.6639034,46.859834 55.4248389,41.8611934 56.0822662,41.3641784 C56.0948486,41.3736755 50.7945376,35.3113596 49.586633,35.5519529 Z" id="Path" fill="#000000" opacity="0.1"></path>
                                <path d="M49.5848578,35.5518084 C49.5848578,35.5518084 45.9709018,33.1271078 43.8006411,34.3394581 C41.6303803,35.5518084 30.7885123,41.372989 30.065092,56.6524012 C29.3416718,71.9318134 34.8868453,102 34.8868453,102 C34.8868453,102 43.0803661,93.7541188 49.5880031,93.997855 C56.0956402,94.2415912 65,83.0835369 65,83.0835369 C65,83.0835369 55.249553,60.7009548 55.8251439,53.7085742 C55.9372464,52.4762358 55.9561726,51.237108 55.8817594,50.0018843 C55.6647333,46.8649675 55.4256901,41.8667923 56.083059,41.3698236 C56.0924949,41.372989 50.7926551,35.3112376 49.5848578,35.5518084 Z" id="Path" fill="#FCB966"></path>
                                <path d="M59,70.8014326 C59,70.8014326 67.978237,62.4042978 72.1015754,64.270666 C76.2249139,66.1370343 64.8176442,75 64.8176442,75 L59,70.8014326 Z" id="Path" fill="#FFBDA3"></path>
                                <path d="M38,54.58459 C38,54.58459 40.8996845,78.5895156 42.5940594,80.0306884 C44.2884343,81.4718611 49.6050484,88.1921124 60.2414318,80.0306884 L67,74.0278905 C67,74.0278905 60.4717659,72.8279575 61.4404309,69.2281586 C61.4404309,69.2281586 52.7382222,72.8279575 51.2868023,69.9487449 C49.8353824,67.0695324 53.4639321,53.8671366 53.4639321,53.8671366 C53.4639321,53.8671366 51.5297574,42.1059136 45.9701882,44.2645398 C40.4106191,46.423166 38,54.58459 38,54.58459 Z" id="Path" fill="#000000" opacity="0.1"></path>
                                <path d="M37,54.587289 C37,54.587289 39.8987383,78.590012 41.5925604,80.0310526 C43.2863824,81.4720931 48.6012617,88.1917278 59.2341745,80.0310526 L66,74.0319381 C66,74.0319381 59.473896,72.8321153 60.4422449,69.2326466 C60.4422449,69.2326466 51.7428758,72.8321153 50.2919295,69.9531669 C48.8409832,67.0742185 52.4683489,53.8730341 52.4683489,53.8730341 C52.4683489,53.8730341 50.5348053,42.1034922 44.9770503,44.265053 C39.4192952,46.4266138 37,54.587289 37,54.587289 Z" id="Path" fill="#FCB966"></path>
                                <path d="M48.1178794,26 C48.1178794,26 48.3939654,26.3501522 48,28.2166159 C50.0473794,30.5063071 52.6128079,33 55.9630652,33 C56.8162187,32.9996923 57.6665405,32.9036652 58.4974728,32.7137886 C59.5707959,30.5215311 60.6999567,28.7311875 61.6678088,28.3353632 C64.5155275,27.1570248 48.1178794,26 48.1178794,26 Z" id="Path" fill="#000000" opacity="0.1"></path>
                                <circle id="Oval" fill="#FFBDA3" cx="55.5" cy="21.5" r="11.5"></circle>
                                <path d="M50.7018901,26.1835658 C50.8864095,25.3195041 51.0396544,24.320824 50.4892237,23.6289485 C50.1764789,23.2219629 49.6541952,23.0028168 49.2882839,22.6396604 C48.0122853,21.3498291 49.1350389,19.1646294 50.4454394,17.9092353 C53.4419316,15.0572154 57.2839469,13.2584049 61.3915053,12.7843473 C62.0857986,12.7060809 62.8395134,12.6434677 63.3524148,12.1582156 C63.9779043,11.5884358 64.0029239,10.6492382 63.9997964,9.8133524 L63.9685219,3.58334194 C63.9685219,2.7787627 63.9685219,1.94287687 63.6151204,1.21343344 C63.2617188,0.483990003 62.508004,-0.110835117 61.7136324,0.0175218827 C60.9849371,0.136486907 60.4845455,0.784533221 59.9904089,1.33552912 C57.3353899,4.20040915 53.2564488,5.25451438 49.547862,4.03415677 C48.6409022,3.72109091 47.765217,3.26714543 46.8113455,3.1638337 C45.8574741,3.06052197 44.75974,3.41741704 44.3719365,4.29713208 C43.9403488,5.28015886 44.5470736,6.46041712 44.2093093,7.47788114 C43.5525453,9.45332667 40.2280687,9.09330094 39.2491777,10.9216055 C38.426659,12.4618895 39.824628,14.1774904 40.7722446,15.6457692 C42.5361249,18.3757035 42.8519971,21.7599453 43.7683392,24.8780812 C44.2530935,26.5341996 45.7886702,30.710498 47.9090796,30.976604 C50.4266747,31.3084538 50.3109592,28.0306543 50.7018901,26.1835658 Z" id="Path" fill="#000000" opacity="0.1"></path>
                                <path d="M50.6925077,26.1863354 C50.8770271,25.3222856 51.0302721,24.3236193 50.4798413,23.6317533 C50.1670966,23.2247733 49.6448129,23.0056302 49.2789015,22.6424788 C48.002903,21.3526653 49.1256566,19.1612345 50.4454394,17.9089884 C53.4419316,15.0570078 57.2839469,13.2582221 61.3915053,12.7841711 C62.0857986,12.7059057 62.8395134,12.6432934 63.3524148,12.158048 C63.9779043,11.588276 64.0029239,10.6490914 63.9997964,9.81321709 L63.9685219,3.58329253 C63.9685219,2.77872438 63.9685219,1.94285008 63.6151204,1.21341671 C63.2617188,0.483983329 62.508004,-0.110833589 61.7136324,0.0175216411 C60.9849371,0.136485025 60.4845455,0.784522403 59.9904089,1.33551071 C57.3353899,4.20035123 53.2564488,5.25444193 49.547862,4.03410114 C48.6409022,3.72103961 47.765217,3.26710038 46.8113455,3.16379007 C45.8574741,3.06047977 44.75974,3.41736992 44.3719365,4.29707283 C43.9403488,5.28008605 44.5470736,6.46032804 44.2093093,7.47777803 C43.5525453,9.45319632 40.2280687,9.09317556 39.2491777,10.9214549 C38.426659,12.4617177 39.824628,14.1772949 40.7722446,15.6455535 C42.5361249,18.3754501 42.8519971,21.7596453 43.7683392,24.8777382 C44.2530935,26.5338337 45.7886702,30.7100746 47.9090796,30.9761769 C50.4141649,31.3111527 50.2984494,28.0333985 50.6925077,26.1863354 Z" id="Path" fill="#1F1B4F"></path>
                                <polygon id="Rectangle" fill="#428BFB" transform="translate(69.111500, 41.264321) rotate(-12.150000) translate(-69.111500, -41.264321) " points="61.3474856 33.7556413 76.8718701 33.7594047 76.8755137 48.7730006 61.3511291 48.7692371"></polygon>
                            </g>
                        </g>
                    </g>
                    <rect id="Gradient" fill="url(#linearGradient-3)" opacity="0.115745908" mask="url(#mask-2)" transform="translate(95.500000, 167.000000) rotate(-90.000000) translate(-95.500000, -167.000000) " x="-71.5" y="108.5" width="334" height="117" rx="8"></rect>
                    <g id="Vote" mask="url(#mask-2)">
                        <g transform="translate(64.689211, 161.447286) rotate(-90.000000) translate(-64.689211, -161.447286) translate(-15.810789, 118.447286)">
                            <path d="M158.573867,59.3681424 L131.454936,59.3681424 C130.972769,59.3681424 130.53735,59.0779336 130.349418,58.631257 L130.056015,57.8566685 C130.033838,57.8038842 130.022906,57.7470154 130.024051,57.6897277 L130.651358,30.0703481 C130.655835,29.8487379 130.835646,29.6715335 131.055958,29.6715335 L158.978571,29.6715335 C159.643256,29.6715335 160.182168,30.2136197 160.182168,30.8822207 L160.182168,57.7503668 C160.182168,58.6438247 159.462092,59.3681424 158.573867,59.3681424 Z" id="Path" fill="#354963"></path>
                            <polygon id="Path" fill="#354963" points="159.077274 29.2793169 159.852011 30.0507634 159.852011 31.5933424 158.349077 30.0815543"></polygon>
                            <path d="M158.898817,58.7062442 L130.626162,58.7062442 C130.281117,58.7062442 130.001458,58.4249374 130.001458,58.0778598 L130.001458,29.6379149 C130.001458,29.2908372 130.281117,29.0095305 130.626162,29.0095305 L158.899442,29.0095305 C159.244487,29.0095305 159.524146,29.2908372 159.524146,29.6379149 L159.524146,58.0771267 C159.524146,58.4246232 159.244174,58.7062442 158.898817,58.7062442 Z" id="Path" fill="#182433"></path>
                            <path d="M115.559025,59.3681424 L88.4400947,59.3681424 C87.9579271,59.3681424 87.5225083,59.0779336 87.3345764,58.631257 L87.0411737,57.8566685 C87.0189967,57.8038842 87.0080644,57.7470154 87.0092097,57.6897277 L87.6365168,30.0703481 C87.6409938,29.8487379 87.8208045,29.6715335 88.0411169,29.6715335 L115.963625,29.6715335 C116.62831,29.6715335 117.167222,30.2136197 117.167222,30.8822207 L117.167222,57.7503668 C117.167326,58.6438247 116.447354,59.3681424 115.559025,59.3681424 Z" id="Path" fill="#354963"></path>
                            <polygon id="Path" fill="#354963" points="116.062537 29.2793169 116.837274 30.0507634 116.837274 31.5933424 115.33434 30.0815543"></polygon>
                            <path d="M115.88408,58.7062442 L87.6114245,58.7062442 C87.2663796,58.7062442 86.9867203,58.4249374 86.9867203,58.0778598 L86.9867203,29.6379149 C86.9867203,29.2908372 87.2663796,29.0095305 87.6114245,29.0095305 L115.884704,29.0095305 C116.229749,29.0095305 116.509408,29.2908372 116.509408,29.6379149 L116.509408,58.0771267 C116.509408,58.4246232 116.229437,58.7062442 115.88408,58.7062442 Z" id="Path" fill="#182433"></path>
                            <path d="M29.5520398,59.0371933 L2.43310932,59.0371933 C1.95094179,59.0371933 1.51552295,58.7469844 1.3275911,58.3003079 L1.03418836,57.5257194 C1.01201136,57.4729351 1.00107903,57.4160663 1.00222433,57.3587786 L1.62953147,29.739399 C1.63400852,29.5177887 1.81381921,29.3405843 2.03413157,29.3405843 L29.9566398,29.3405843 C30.6214292,29.3405843 31.1602366,29.8826706 31.1602366,30.5512716 L31.1602366,57.4194177 C31.1603407,58.3128755 30.440265,59.0371933 29.5520398,59.0371933 Z" id="Path" fill="#354963"></path>
                            <polygon id="Path" fill="#354963" points="30.0554472 28.9483677 30.8301846 29.7198143 30.8301846 31.2623933 29.3272504 29.7506052"></polygon>
                            <path d="M29.8770942,58.3752951 L1.60433507,58.3752951 C1.25929011,58.3752951 0.979630857,58.0939883 0.979630857,57.7469107 L0.979630857,29.3070705 C0.979630857,28.9599929 1.25929011,28.6786861 1.60433507,28.6786861 L29.8777189,28.6786861 C30.2227638,28.6786861 30.5024231,28.9599929 30.5024231,29.3070705 L30.5024231,57.7462823 C30.5024231,58.0936741 30.2224515,58.3752951 29.8770942,58.3752951 Z" id="Path" fill="#182433"></path>
                            <path d="M72.5442877,59.0371933 L45.4253573,59.0371933 C44.9431898,59.0371933 44.5077709,58.7469844 44.3198391,58.3003079 L44.0264363,57.5257194 C44.0042593,57.4729351 43.993327,57.4160663 43.9944723,57.3587786 L44.6217795,29.739399 C44.6262565,29.5177887 44.8060672,29.3405843 45.0263796,29.3405843 L72.9488878,29.3405843 C73.6135731,29.3405843 74.1524846,29.8826706 74.1524846,30.5512716 L74.1524846,57.4194177 C74.1525887,58.3128755 73.432513,59.0371933 72.5442877,59.0371933 Z" id="Path" fill="#354963"></path>
                            <polygon id="Path" fill="#354963" points="73.0476952 28.9483677 73.8224326 29.7198143 73.8224326 31.2623933 72.3194983 29.7506052"></polygon>
                            <path d="M72.8692381,58.3752951 L44.5965831,58.3752951 C44.2515381,58.3752951 43.9718788,58.0939883 43.9718788,57.7469107 L43.9718788,29.3070705 C43.9718788,28.9599929 44.2515381,28.6786861 44.5965831,28.6786861 L72.8699669,28.6786861 C73.2150118,28.6786861 73.4946711,28.9599929 73.4946711,29.3070705 L73.4946711,57.7462823 C73.4946711,58.0936741 73.2145954,58.3752951 72.8692381,58.3752951 Z" id="Path" fill="#182433"></path>
                            <polygon id="Rectangle" fill="#FF7D73" transform="translate(86.535492, 32.008621) rotate(120.000728) translate(-86.535492, -32.008621) " points="86.011271 29.8284104 87.0708258 29.8257194 87.0597121 34.1888315 86.0001573 34.1915225"></polygon>
                            <polygon id="Rectangle" fill="#00D4DC" transform="translate(5.137310, 41.752678) rotate(-144.401045) translate(-5.137310, -41.752678) " points="4.53614702 39.291635 5.7248118 39.2949428 5.73847393 44.2137214 4.54980915 44.2104136"></polygon>
                            <polygon id="Rectangle" fill="#00D4DC" transform="translate(150.111477, 19.461746) rotate(-149.999272) translate(-150.111477, -19.461746) " points="149.511211 16.9995284 150.699245 17.0025546 150.711744 21.9239626 149.52371 21.9209365"></polygon>
                            <polygon id="Rectangle" fill="#8699AD" transform="translate(115.464664, 50.155030) rotate(125.598955) translate(-115.464664, -50.155030) " points="114.971558 48.1000899 115.969215 48.0973188 115.95777 52.2099696 114.960113 52.2127407"></polygon>
                            <polygon id="Rectangle" fill="#22B1B5" transform="translate(9.873175, 7.455757) rotate(30.000728) translate(-9.873175, -7.455757) " points="9.2729085 4.99359177 10.4609429 4.99661794 10.4734417 9.91792143 9.2854073 9.91489526"></polygon>
                            <polygon id="Rectangle" fill="#00D4DC" transform="translate(55.266028, 51.212818) rotate(52.635069) translate(-55.266028, -51.212818) " points="54.8172101 49.3820274 55.7044714 49.3845393 55.7148463 53.0436085 54.827585 53.0410966"></polygon>
                            <polygon id="Rectangle" fill="#00D4DC" transform="translate(126.039650, 32.708976) rotate(-37.364931) translate(-126.039650, -32.708976) " points="125.452157 30.2516206 126.641065 30.2482495 126.627142 35.1663317 125.438234 35.1697027"></polygon>
                            <polygon id="Rectangle" fill="#354963" transform="translate(105.375754, 17.515056) rotate(169.478894) translate(-105.375754, -17.515056) " points="104.785064 15.0518194 105.971626 15.0505648 105.966443 19.9782923 104.779882 19.9795469"></polygon>
                            <polygon id="Rectangle" fill="#22B1B5" transform="translate(78.831271, 13.053042) rotate(-168.070915) translate(-78.831271, -13.053042) " points="78.235049 10.5886483 79.4216558 10.5900617 79.4274933 15.5174357 78.2408865 15.5160223"></polygon>
                            <polygon id="Rectangle" fill="#8699AD" transform="translate(55.204687, 16.915293) rotate(72.186566) translate(-55.204687, -16.915293) " points="54.6041957 14.4631914 55.7967714 14.4652267 55.8051779 19.3673944 54.6126022 19.365359"></polygon>
                            <ellipse id="Oval" fill="#00D4DC" cx="20.3123521" cy="22.5344482" rx="1" ry="1"></ellipse>
                            <ellipse id="Oval" fill="#FF7D73" cx="86.931434" cy="0.968714437" rx="1" ry="1"></ellipse>
                            <ellipse id="Oval" fill="#354963" cx="37.5174349" cy="9.71100769" rx="1" ry="1"></ellipse>
                            <ellipse id="Oval" fill="#8699AD" cx="25.2839565" cy="46.7824407" rx="1" ry="1"></ellipse>
                            <path d="M128.825764,9.98948671 C129.115419,10.2686988 129.379773,10.5704281 129.607061,10.9034718 C129.725338,11.0769059 129.834245,11.256938 129.933261,11.4422067 C130.026133,11.615955 130.236555,11.9287857 130.134624,12.130916 C129.926597,12.5432409 129.127601,12.099811 128.852522,11.9612522 C128.488216,11.7776593 128.134425,11.5730154 127.757312,11.4158146 C127.449229,11.28731 126.890118,11.1425721 126.796933,11.6137557 C126.754037,11.8303388 126.845764,12.0455605 126.979347,12.208731 C127.396025,12.7174081 127.935248,13.2371868 128.287165,13.7499484 C128.344534,13.8335236 128.422518,13.9568964 128.425017,14.0614176 C128.433867,14.431955 128.114747,14.2134867 127.972627,14.1016342 C127.6938,13.8820139 127.435797,13.6440657 127.173422,13.4050701 C126.776839,13.0438538 126.155987,12.4785173 125.565641,12.5566464 C125.362821,12.5834575 125.158438,12.7621281 125.110752,12.9642585 C125.039953,13.2646262 125.328878,13.7098366 125.462253,13.9643322 C125.841344,14.6878121 126.371093,15.3106458 126.916564,15.9113813 C127.10054,16.1140353 127.399044,15.8124108 127.215693,15.6104899 C126.714056,15.05814 126.228765,14.4901853 125.870705,13.8304864 C125.791888,13.6853296 125.379896,13.0585161 125.62832,12.9742079 C125.74514,12.9346197 126.042186,13.0965334 126.139849,13.1481656 C126.305083,13.2356158 126.45699,13.3470493 126.601088,13.4657092 C126.860028,13.6788363 127.095542,13.9190886 127.348755,14.1389184 C127.559385,14.321883 127.806872,14.5705137 128.070601,14.668018 C128.317776,14.759448 128.584628,14.6887547 128.740909,14.4675634 C128.900937,14.2412403 128.863038,13.9637039 128.754444,13.7240799 C128.636062,13.4628815 128.426578,13.2571903 128.243019,13.0415497 C127.960965,12.7099722 127.678912,12.3783947 127.396858,12.0468172 C127.36,12.0034587 127.32231,11.9607286 127.286181,11.9167417 C127.267231,11.8935962 127.224856,11.8169333 127.25911,11.8854272 C127.241619,11.8504471 127.207885,11.6930368 127.193516,11.7097937 C127.302735,11.5827554 127.943265,11.9670124 128.047383,12.0197967 C128.36265,12.1797205 128.669692,12.3559824 128.995059,12.49496 C129.354264,12.6484953 129.771046,12.8060103 130.154823,12.6442013 C130.485499,12.5047 130.639177,12.1685144 130.558694,11.8235313 C130.465405,11.4235646 130.199489,11.0219223 129.972513,10.6886691 C129.725442,10.3259866 129.440577,9.99262863 129.125102,9.68859531 C128.92832,9.49913741 128.62867,9.79960989 128.825764,9.98948671 Z" id="Path" fill="#FF7D73"></path>
                            <polygon id="Rectangle-Copy-6" fill="#00D4DC" transform="translate(9.873103, 61.042308) rotate(-330.000000) translate(-9.873103, -61.042308) " points="9.2728367 58.5800906 10.4608711 58.5831168 10.4733702 63.5045249 9.28533576 63.5014987"></polygon>
                            <polygon id="Rectangle-Copy-5" fill="#22B1B5" transform="translate(150.111558, 73.046515) rotate(-150.000000) translate(-150.111558, -73.046515) " points="149.511292 70.5843505 150.699326 70.5873767 150.711825 75.5086802 149.52379 75.505654"></polygon>
                            <polygon id="Rectangle-Copy-4" fill="#354963" transform="translate(54.236361, 64.987945) rotate(-15.000000) translate(-54.236361, -64.987945) " points="53.6456715 62.5247089 54.8322326 62.5234542 54.8270505 67.4511817 53.6404893 67.4524364"></polygon>
                            <polygon id="Rectangle-Copy-3" fill="#22B1B5" transform="translate(81.221462, 67.514190) rotate(-345.000000) translate(-81.221462, -67.514190) " points="80.6252398 65.0497965 81.8118466 65.0512098 81.8176841 69.9785838 80.6310773 69.9771705"></polygon>
                            <polygon id="Rectangle-Copy" fill="#8699AD" transform="translate(105.003570, 64.810770) rotate(-105.000000) translate(-105.003570, -64.810770) " points="104.403079 62.3586683 105.595654 62.3607036 105.604061 67.2628713 104.411485 67.2608359"></polygon>
                            <ellipse id="Oval-Copy-3" fill="#00D4DC" transform="translate(139.672327, 57.968714) rotate(-180.000000) translate(-139.672327, -57.968714) " cx="139.672327" cy="57.9687144" rx="1" ry="1"></ellipse>
                            <ellipse id="Oval-Copy-2" fill="#FF7D73" transform="translate(73.053245, 79.534448) rotate(-180.000000) translate(-73.053245, -79.534448) " cx="73.0532447" cy="79.5344482" rx="1" ry="1"></ellipse>
                            <ellipse id="Oval-Copy" fill="#354963" transform="translate(122.467244, 70.792155) rotate(-180.000000) translate(-122.467244, -70.792155) " cx="122.467244" cy="70.7921549" rx="1" ry="1"></ellipse>
                            <path d="M33.1309528,64.8858246 C33.4206073,65.1650367 33.6849613,65.4667659 33.9122495,65.7998097 C34.0305269,65.9732438 34.1394336,66.1532759 34.2384493,66.3385446 C34.3313219,66.5122928 34.5417431,66.8251235 34.4398122,67.0272539 C34.2317857,67.4395788 33.4327891,66.9961488 33.157711,66.8575901 C32.7934043,66.6739971 32.4396135,66.4693532 32.0625004,66.3121524 C31.7544171,66.1836478 31.1953068,66.0389099 31.1021218,66.5100935 C31.0592254,66.7266767 31.1509528,66.9418983 31.2845354,67.1050688 C31.7012131,67.613746 32.2404369,68.1335246 32.5923537,68.6462863 C32.6497223,68.7298614 32.7277062,68.8532342 32.7302051,68.9577555 C32.739055,69.3282928 32.4199353,69.1098245 32.2778151,68.9979721 C31.9989888,68.7783517 31.7409859,68.5404035 31.4786102,68.301408 C31.0820271,67.9401917 30.4611752,67.3748552 29.8708298,67.4529843 C29.6680091,67.4797954 29.4636267,67.658466 29.415941,67.8605963 C29.3451412,68.1609641 29.6340669,68.6061744 29.7674412,68.8606701 C30.1465325,69.58415 30.6762817,70.2069837 31.2217526,70.8077192 C31.405728,71.0103731 31.7042325,70.7087486 31.5208818,70.5068278 C31.0192443,69.9544779 30.5339533,69.3865231 30.1758936,68.7268242 C30.0970768,68.5816674 29.6850844,67.954854 29.9335084,67.8705457 C30.0503281,67.8309575 30.347375,67.9928712 30.445037,68.0445035 C30.6102713,68.1319536 30.7621785,68.2433871 30.906277,68.3620471 C31.1652169,68.5751741 31.4007304,68.8154264 31.6539438,69.0352562 C31.8645732,69.2182208 32.1120602,69.4668516 32.3757895,69.5643559 C32.6229642,69.6557858 32.889817,69.5850926 33.0460971,69.3639013 C33.2061255,69.1375781 33.1682268,68.8600417 33.0596324,68.6204178 C32.941251,68.3592193 32.7317668,68.1535282 32.5482079,67.9378876 C32.2661539,67.6063101 31.9841,67.2747326 31.702046,66.9431551 C31.6651885,66.8997966 31.627498,66.8570664 31.5913693,66.8130795 C31.5724199,66.789934 31.5300441,66.7132711 31.5642988,66.781765 C31.546807,66.746785 31.513073,66.5893747 31.4987048,66.6061316 C31.6079239,66.4790932 32.248454,66.8633503 32.3525714,66.9161346 C32.6678387,67.0760584 32.9748809,67.2523202 33.3002476,67.3912979 C33.6594526,67.5448332 34.0762344,67.7023482 34.460011,67.5405392 C34.7906878,67.4010379 34.944365,67.0648522 34.8638823,66.7198692 C34.7705931,66.3199025 34.5046774,65.9182601 34.2777015,65.5850069 C34.030631,65.2223244 33.7457659,64.8889665 33.4302902,64.5849332 C33.2335084,64.3954753 32.9338586,64.6959477 33.1309528,64.8858246 Z" id="Path-Copy" fill="#FF7D73" transform="translate(32.144934, 67.699750) rotate(-180.000000) translate(-32.144934, -67.699750) "></path>
                            <path d="M35.4145764,32.6482951 C35.8944534,32.5480678 36.379328,32.4892091 36.869929,32.4895233 C37.1253289,32.4897328 37.3809371,32.5040809 37.6347752,32.532044 C37.8729957,32.5582267 38.3316327,32.5615781 38.4634453,32.8047628 C38.7321723,33.3008723 37.7354567,33.8030562 37.4064458,33.9856018 C36.9705064,34.2275298 36.5210317,34.444113 36.1026881,34.7172507 C35.7608708,34.9403272 35.2291434,35.406379 35.6362423,35.8268729 C35.8233412,36.0201011 36.1022717,36.0762367 36.3579839,36.0538244 C37.1554188,35.9838642 38.0487459,35.7974435 38.8054709,35.7958726 C38.9287459,35.7956631 39.106266,35.801947 39.2125698,35.8718024 C39.5895788,36.1192811 39.1500994,36.2912489 38.9397823,36.357753 C38.5269569,36.4881427 38.1103833,36.5847045 37.6895409,36.6851412 C37.053592,36.8367913 36.0581259,37.0744254 35.7278656,37.7261647 C35.6143777,37.950079 35.6516517,38.280714 35.8210506,38.4689151 C36.0727023,38.7484414 36.71823,38.7639416 37.0652532,38.804996 C38.0516611,38.9217708 39.0416091,38.8163069 40.0203124,38.6795286 C40.3504685,38.6334471 40.2552011,38.1224658 39.9261903,38.1684426 C39.0263038,38.2941195 38.1219404,38.3926711 37.2139328,38.2988324 C37.0141316,38.2782004 36.1016469,38.2617577 36.1893138,37.9517547 C36.2304401,37.8060743 36.5981827,37.6172448 36.7173971,37.5540921 C36.9191765,37.4472668 37.1358448,37.3706039 37.3543871,37.3067181 C37.7469096,37.192038 38.1503644,37.119669 38.5455939,37.015462 C38.8745007,36.9287449 39.2945102,36.8501969 39.5747941,36.6505801 C39.8373781,36.463531 39.9511784,36.1444165 39.838107,35.833052 C39.7223284,35.5143564 39.4183057,35.3607164 39.1033507,35.3048949 C38.7599716,35.2440463 38.4092002,35.3139017 38.0663417,35.3504528 C37.5392996,35.4066932 37.0122575,35.4628288 36.4851112,35.5190692 C36.4161855,35.5264004 36.3473639,35.5349883 36.2783341,35.5410627 C36.2419972,35.5443093 36.1360057,35.5341505 36.2282537,35.5468229 C36.1810885,35.5403296 36.0002366,35.4656566 36.0070043,35.4917345 C35.9554662,35.293165 36.7833034,34.9104789 36.9081401,34.8415661 C37.2863985,34.6329425 37.6751727,34.4440083 38.0394794,34.2107729 C38.4417889,33.95324 38.8878277,33.6401999 38.9913204,33.139587 C39.080549,32.7080964 38.8504496,32.3199643 38.4493895,32.1626587 C37.9845054,31.9804272 37.3984288,31.9717346 36.9078277,31.9708967 C36.3739139,31.9700589 35.8431235,32.027975 35.3204543,32.1369997 C34.9947752,32.2051794 35.0881685,32.7163701 35.4145764,32.6482951 Z" id="Path" fill="#FF7D73"></path>
                            <path d="M128.825764,79.9894867 C129.115419,80.2686988 129.379773,80.5704281 129.607061,80.9034718 C129.725338,81.0769059 129.834245,81.256938 129.933261,81.4422067 C130.026133,81.615955 130.236555,81.9287857 130.134624,82.130916 C129.926597,82.5432409 129.127601,82.099811 128.852522,81.9612522 C128.488216,81.7776593 128.134425,81.5730154 127.757312,81.4158146 C127.449229,81.28731 126.890118,81.1425721 126.796933,81.6137557 C126.754037,81.8303388 126.845764,82.0455605 126.979347,82.208731 C127.396025,82.7174081 127.935248,83.2371868 128.287165,83.7499484 C128.344534,83.8335236 128.422518,83.9568964 128.425017,84.0614176 C128.433867,84.431955 128.114747,84.2134867 127.972627,84.1016342 C127.6938,83.8820139 127.435797,83.6440657 127.173422,83.4050701 C126.776839,83.0438538 126.155987,82.4785173 125.565641,82.5566464 C125.362821,82.5834575 125.158438,82.7621281 125.110752,82.9642585 C125.039953,83.2646262 125.328878,83.7098366 125.462253,83.9643322 C125.841344,84.6878121 126.371093,85.3106458 126.916564,85.9113813 C127.10054,86.1140353 127.399044,85.8124108 127.215693,85.6104899 C126.714056,85.05814 126.228765,84.4901853 125.870705,83.8304864 C125.791888,83.6853296 125.379896,83.0585161 125.62832,82.9742079 C125.74514,82.9346197 126.042186,83.0965334 126.139849,83.1481656 C126.305083,83.2356158 126.45699,83.3470493 126.601088,83.4657092 C126.860028,83.6788363 127.095542,83.9190886 127.348755,84.1389184 C127.559385,84.321883 127.806872,84.5705137 128.070601,84.668018 C128.317776,84.759448 128.584628,84.6887547 128.740909,84.4675634 C128.900937,84.2412403 128.863038,83.9637039 128.754444,83.7240799 C128.636062,83.4628815 128.426578,83.2571903 128.243019,83.0415497 C127.960965,82.7099722 127.678912,82.3783947 127.396858,82.0468172 C127.36,82.0034587 127.32231,81.9607286 127.286181,81.9167417 C127.267231,81.8935962 127.224856,81.8169333 127.25911,81.8854272 C127.241619,81.8504471 127.207885,81.6930368 127.193516,81.7097937 C127.302735,81.5827554 127.943265,81.9670124 128.047383,82.0197967 C128.36265,82.1797205 128.669692,82.3559824 128.995059,82.49496 C129.354264,82.6484953 129.771046,82.8060103 130.154823,82.6442013 C130.485499,82.5047 130.639177,82.1685144 130.558694,81.8235313 C130.465405,81.4235646 130.199489,81.0219223 129.972513,80.6886691 C129.725442,80.3259866 129.440577,79.9926286 129.125102,79.6885953 C128.92832,79.4991374 128.62867,79.7996099 128.825764,79.9894867 Z" id="Path-Copy-3" fill="#FF7D73"></path>
                            <path d="M153.729702,49.7127019 C154.124931,49.6097516 154.525991,49.5408388 154.934236,49.5210447 C155.146739,49.510781 155.359972,49.5122473 155.572371,49.5251292 C155.771548,49.5371732 156.153346,49.5211494 156.272873,49.7181479 C156.516507,50.119895 155.707515,50.5785109 155.441183,50.7438807 C155.088225,50.9629774 154.722982,51.1616516 154.385954,51.4059884 C154.110563,51.6056052 153.687014,52.0151023 154.042679,52.3482508 C154.206143,52.5013671 154.440511,52.5366614 154.652286,52.5075463 C155.312911,52.4167447 156.048708,52.2250875 156.678202,52.1928304 C156.780757,52.1875939 156.928708,52.185604 157.020019,52.2393309 C157.34372,52.4298361 156.985035,52.5909119 156.812721,52.6547977 C156.474548,52.7801604 156.131794,52.8775599 155.785708,52.9783109 C155.262726,53.1304847 154.444051,53.3689565 154.195627,53.9247625 C154.110251,54.1156867 154.154605,54.3893481 154.30318,54.5390083 C154.523909,54.7613516 155.061571,54.7478414 155.351955,54.7677402 C156.177397,54.8245043 156.996801,54.6963139 157.80548,54.5424644 C158.078268,54.4906227 157.978419,54.0693957 157.706465,54.1210279 C156.962754,54.2624144 156.214359,54.3813885 155.455031,54.3404388 C155.287922,54.331432 154.528074,54.3551011 154.588462,54.0935885 C154.616782,53.9707393 154.915078,53.798562 155.011803,53.7411696 C155.175372,53.6440842 155.352579,53.5714011 155.531765,53.5092957 C155.853696,53.3977575 156.186455,53.3210946 156.511093,53.218249 C156.781278,53.132684 157.127572,53.0500515 157.35257,52.8725329 C157.563512,52.7062205 157.645348,52.4360152 157.538523,52.1815195 C157.429304,51.9211589 157.170156,51.8057456 156.905906,51.772127 C156.617709,51.735576 156.32868,51.8080497 156.04496,51.8524555 C155.608708,51.92074 155.172456,51.9891291 154.736204,52.0574136 C154.679148,52.0663157 154.6223,52.0762651 154.565035,52.0842246 C154.534946,52.0884139 154.446342,52.0843294 154.523597,52.0911369 C154.484136,52.0876807 154.330563,52.0329066 154.337331,52.0543764 C154.286417,51.8913106 154.959744,51.5389964 155.060842,51.4765769 C155.367156,51.2875379 155.682944,51.114418 155.976659,50.9053755 C156.300984,50.6746537 156.65946,50.3959652 156.725263,49.9751571 C156.782007,49.6125793 156.574917,49.2989108 156.23487,49.1845448 C155.840681,49.0519557 155.352788,49.0686079 154.944543,49.0880878 C154.500274,49.1092434 154.061003,49.1790988 153.630582,49.2912654 C153.36248,49.3611208 153.460871,49.782662 153.729702,49.7127019 Z" id="Path" fill="#22B1B5"></path>
                            <path d="M148.888244,49.0835844 L141.295381,49.0835844 C140.622054,49.0835844 140.076375,48.5345859 140.076375,47.8572922 L140.076375,36.9270692 C140.076375,36.2497756 140.622158,35.7007771 141.295381,35.7007771 L148.725092,35.7007771 C149.398419,35.7007771 149.944203,36.2497756 149.944203,36.9270692 L149.944203,37.1588383 C149.944203,37.836132 149.398419,38.3851305 148.725092,38.3851305 L145.307752,38.3851305 C144.634529,38.3851305 144.088746,38.934129 144.088746,39.6114227 C144.088746,40.2887163 144.634529,40.8377148 145.307752,40.8377148 L148.456261,40.8377148 C149.129588,40.8377148 149.675372,41.3867133 149.675372,42.064007 L149.675372,42.3054113 C149.675372,42.982705 149.129588,43.5317035 148.456261,43.5317035 L145.307752,43.5317035 C144.634529,43.5317035 144.088746,44.080702 144.088746,44.7579956 L144.088746,45.163513 C144.088746,45.8408067 144.634529,46.3898052 145.307752,46.3898052 L148.888244,46.3898052 C149.561571,46.3898052 150.107354,46.9388037 150.107354,47.6160973 L150.107354,47.8575017 C150.107354,48.5345859 149.561467,49.0835844 148.888244,49.0835844 Z M107.337293,40.7514167 L105.695883,40.7514167 C104.802556,40.7514167 104.078419,41.4798189 104.078419,42.3784086 L104.078419,49.2532482 C104.078419,50.1518379 103.354283,50.8802401 102.460956,50.8802401 L101.692986,50.8802401 C100.799659,50.8802401 100.075523,50.1518379 100.075523,49.2532482 L100.075523,42.3784086 C100.075523,41.4798189 99.3513867,40.7514167 98.4580596,40.7514167 L96.8166493,40.7514167 C95.9233223,40.7514167 95.199186,40.0230144 95.199186,39.1244247 C95.199186,38.225835 95.9233223,37.4974328 96.8166493,37.4974328 L107.337189,37.4974328 C108.230516,37.4974328 108.954652,38.225835 108.954652,39.1244247 C108.954756,40.0230144 108.23062,40.7514167 107.337293,40.7514167 Z M21.8228869,39.4256303 L17.5078467,49.1761664 C17.2039281,49.8628858 16.5267487,50.3052684 15.7794983,50.3052684 L15.5970847,50.3052684 C14.8449408,50.3052684 14.1642215,49.8571256 13.8633223,49.1637034 L9.63105537,39.4131674 C9.08537624,38.1560844 10.0011926,36.7487128 11.3648178,36.7487128 C12.1405963,36.7487128 12.8377662,37.2251329 13.1235684,37.9507074 L13.9587979,40.0708764 C14.5868339,41.6651923 16.8261903,41.6760843 17.4695315,40.0879475 L18.3423474,37.9335316 C18.6326266,37.2170686 19.3252153,36.7487128 20.0943303,36.7487128 L20.0946427,36.7487128 C21.4640984,36.7487128 22.3798107,38.1670811 21.8228869,39.4256303 Z M66.623133,44.1839665 C66.623133,45.4328805 66.3367061,46.5818814 65.7641647,47.6310738 C65.1913109,48.6803711 64.3385897,49.513923 63.2058968,50.1318343 C62.073204,50.7497456 60.6940653,51.058806 59.0686891,51.058806 C57.423947,51.058806 56.0320019,50.7369685 54.893062,50.0932934 C53.7539139,49.449723 52.9076479,48.6031845 52.3540558,47.5538873 C51.800672,46.5047995 51.5238239,45.381353 51.5238239,44.1840712 C51.5238239,42.9805056 51.798902,41.8555928 52.3493706,40.8094375 C52.8996309,39.7634917 53.7461051,38.9203045 54.8882726,38.2796666 C56.0307525,37.6392382 57.423947,37.3189716 59.0687932,37.3189716 C60.2974823,37.3189716 61.3933176,37.5024599 62.3564032,37.8693316 C63.319593,38.2362034 64.1115097,38.7334649 64.7322575,39.3611162 C65.3529011,39.9887675 65.8231992,40.7193691 66.1433602,41.552921 C66.4631046,42.3865776 66.623133,43.2635928 66.623133,44.1839665 Z M62.5339233,44.1839665 C62.5339233,43.6818873 62.4603124,43.2232715 62.3131945,42.8080141 C62.1658684,42.3928615 61.9437861,42.0323783 61.6460104,41.7265645 C61.3486512,41.4209603 60.9852816,41.1826978 60.5566304,41.0120915 C60.1277709,40.8415898 59.6317558,40.7562343 59.0687932,40.7562343 C57.9936772,40.7562343 57.148973,41.0716833 56.5346805,41.7024765 C55.920284,42.3334791 55.6131377,43.160433 55.6131377,44.1839665 C55.6131377,45.2074999 55.9218457,46.036339 56.5393658,46.6702741 C57.1569901,47.3044187 58.0000284,47.6213339 59.0687932,47.6213339 C59.8045906,47.6213339 60.4318978,47.4750251 60.950194,47.1819885 C61.4685944,46.8891613 61.862054,46.4836439 62.130885,45.9653315 C62.3996119,45.447438 62.5339233,44.8536148 62.5339233,44.1839665 Z" id="Combined-Shape" fill="#FF7D73"></path>
                        </g>
                    </g>
                </g>
            </g>
        </g>
    </g>
</svg>